<svg version="1.1" id="图层_1" xmlns="http://www.w3.org/2000/svg" xmlns:xlink="http://www.w3.org/1999/xlink" x="0px" y="0px" viewBox="0 0 302 302" style="enable-background:new 0 0 302 302;" xml:space="preserve">
<style type="text/css">
.st0{fill-rule:evenodd;clip-rule:evenodd;fill:currentColor;}
</style>
<g id="book">
<g id="slide_07" transform="translate(-230.000000, -233.000000)">
<g id="logo" transform="translate(230.000000, 233.000000)">
<g id="icon" transform="translate(51.000000, 51.000000)">
<g id="Combined-Shape">
<path class="st0" d="M150.8,4.3C173.3,9,191,26.7,195.7,49.2C198.3,60.5,200,79,200,100s-1.7,39.5-4.3,50.8
c-4.7,22.5-22.4,40.2-44.9,44.9c-11.3,2.6-29.8,4.3-50.8,4.3s-39.5-1.7-50.8-4.3C26.7,191,9,173.3,4.3,150.8
C1.7,139.5,0,121,0,100s1.7-39.5,4.3-50.8C9,26.7,26.7,9,49.2,4.3C60.5,1.7,79,0,100,0S139.5,1.7,150.8,4.3z M124,153.5
c0.6,1.5,2.1,2.4,3.8,2.3c0.5,0,0.9-0.1,1.2-0.1c7.8-0.8,14-1.9,17.6-3.1l0,0c2.4-0.9,4.1-3.2,4.1-5.9c0-0.1,0-0.1,0-0.2
c0-0.1,0-0.2,0-0.3v-0.1c0-0.1,0-0.1,0-0.2c-0.6-8.2-5.6-27.3-13-49.1c-8.5-24.9-17.3-45.1-21.3-49.1l0,0
c-0.6-0.7-1.4-1.2-2.2-1.6c-0.3-0.2-0.7-0.4-1.2-0.5l0,0l0,0c-2.6-0.9-7.5-1.5-13-1.5l0,0c-5.5,0-10.4,0.6-13,1.5l0,0
c-0.5,0.2-0.9,0.3-1.2,0.5c-0.8,0.4-1.5,1-2.2,1.6l0,0c-4,3.9-12.8,24.1-21.3,49.1c-7.4,21.8-12.4,40.9-13,49.1
c0,0.1,0,0.1,0,0.2v0.1c0,0.1,0,0.2,0,0.3s0,0.1,0,0.2c0,2.7,1.7,5,4.1,5.9l0,0c3.6,1.3,9.7,2.4,17.6,3.1
c0.3,0,0.7,0.1,1.1,0.1c1.7,0.2,3.3-0.8,3.9-2.3c1.9-4.5,5.9-7.8,10.8-8.9c2.9-0.7,7.8-1.1,13.2-1.1s10.3,0.4,13.2,1.1
C118.1,145.6,122.1,149,124,153.5z">
</path>
</g>
</g>
</g>
</g>
</g>
</svg>
