
<svg version="1.1" xmlns="http://www.w3.org/2000/svg" xmlns:xlink="http://www.w3.org/1999/xlink" x="0px" y="0px" viewBox="0 0 680 169" style="enable-background:new 0 0 680 169;" xml:space="preserve">
<style type="text/css">
.st0{fill:url(#Combined-Shape_2_);}
.st1{fill:url(#Combined-Shape_3_);}
.st2{fill:url(#SVGID_1_);}
.st3{fill:url(#SVGID_2_);}
.st4{fill:url(#SVGID_3_);}
.st5{fill:url(#SVGID_4_);}
.st6{fill:url(#SVGID_5_);}
.st7{fill:url(#SVGID_6_);}
.st8{fill:url(#SVGID_7_);}
</style>
<g id="Layer_1">
<title>Group</title>
<desc>Created with Sketch.</desc>
<g id="Logo">
<g id="Logo-Marfeel" transform="translate(-160.000000, -316.000000)">
<g id="Group" transform="translate(160.000000, 316.000000)">
<g id="Group-3">

<linearGradient id="Combined-Shape_2_" gradientUnits="userSpaceOnUse" x1="41.8881" y1="501.9593" x2="42.1803" y2="502.6368" gradientTransform="matrix(91 0 0 -109.0353 -3780 54883.7969)">
<stop  offset="0" style="stop-color:currentcolor"/>
<stop  offset="1" style="stop-color:currentcolor"/>
</linearGradient>
<path id="Combined-Shape" class="st0" d="M73.4,60l17.2,63.7c1.8,6.7-2.2,13.6-9,15.4l-55,14.6c-6.8,1.8-10.8,8.7-9,15.4
L0.4,105.4c-1.8-6.7,2.2-13.6,9-15.4l55-14.6C71.2,73.6,75.2,66.7,73.4,60z"/>

<linearGradient id="Combined-Shape_3_" gradientUnits="userSpaceOnUse" x1="42.3495" y1="502.808" x2="41.8628" y2="502.0234" gradientTransform="matrix(91 0 0 -108.9735 -3711.0002 54792.5547)">
<stop  offset="0" style="stop-color:currentcolor"/>
<stop  offset="1" style="stop-color:currentcolor"/>
</linearGradient>
<path id="Combined-Shape_1_" class="st1" d="M142.4,0l17.2,63.6c1.8,6.7-2.2,13.6-9,15.4l-55,14.6c-6.8,1.8-10.8,8.7-9,15.4
L69.4,45.3c-1.8-6.7,2.2-13.6,9-15.4l55-14.6C140.2,13.6,144.2,6.7,142.4,0z"/>
</g>
<g>
<linearGradient id="SVGID_1_" gradientUnits="userSpaceOnUse" x1="266.402" y1="183.6937" x2="636.402" y2="-1.3063">
<stop  offset="0" style="stop-color:currentcolor"/>
<stop  offset="1" style="stop-color:currentcolor"/>
</linearGradient>
<path class="st2" d="M452.6,61.1c-6.4,0-12.4,1.8-17.5,4.9c-1.3-3-4.3-5.1-7.7-5.1c-4.7,0-8.4,3.8-8.4,8.4v67.7
c0,4.7,3.8,8.4,8.4,8.4s8.4-3.8,8.4-8.4V94.8c0-9.3,7.5-16.8,16.8-16.8c4.7,0,8.4-3.8,8.4-8.4S457.3,61.1,452.6,61.1z"/>
<linearGradient id="SVGID_2_" gradientUnits="userSpaceOnUse" x1="256.5742" y1="164.0383" x2="626.5742" y2="-20.9618">
<stop  offset="0" style="stop-color:currentcolor"/>
<stop  offset="1" style="stop-color:currentcolor"/>
</linearGradient>
<path class="st3" d="M393.7,61.1h-25.3c-18.6,0-33.7,15.1-33.7,33.7v16.8c0,18.6,15.1,33.7,33.7,33.7c6.4,0,12.4-1.8,17.5-4.9
c1.3,3,4.3,5.1,7.7,5.1c4.7,0,8.4-3.8,8.4-8.4V70.2v-0.7C402.1,64.9,398.3,61.1,393.7,61.1z M385.3,111.6
c0,9.3-7.5,16.8-16.8,16.8s-16.8-7.5-16.8-16.8V94.8c0-9.3,7.5-16.8,16.8-16.8h16.8V111.6z"/>
<linearGradient id="SVGID_3_" gradientUnits="userSpaceOnUse" x1="232.7756" y1="116.4409" x2="602.7756" y2="-68.5591">
<stop  offset="0" style="stop-color:currentcolor"/>
<stop  offset="1" style="stop-color:currentcolor"/>
</linearGradient>
<path class="st4" d="M284.2,61.1c-10.1,0-19.1,4.4-25.3,11.4c-6.2-7-15.2-11.4-25.3-11.4c-6.4,0-12.4,1.8-17.5,4.9
c-1.3-3-4.3-5.1-7.7-5.1c-4.7,0-8.4,3.8-8.4,8.4v67.7c0,4.7,3.8,8.4,8.4,8.4s8.4-3.8,8.4-8.4V94.8c0-9.3,7.5-16.8,16.8-16.8
s16.8,7.5,16.8,16.8v42.6c0,4.7,3.8,8.4,8.4,8.4s8.4-3.8,8.4-8.4V94.8c0-9.3,7.5-16.8,16.8-16.8c9.3,0,16.8,7.5,16.8,16.8v42.6
c0,4.7,3.8,8.4,8.4,8.4s8.4-3.8,8.4-8.4v-43c0-0.1,0-0.3,0-0.4C317.4,75.7,302.5,61.1,284.2,61.1z"/>
<linearGradient id="SVGID_4_" gradientUnits="userSpaceOnUse" x1="306.2254" y1="263.3406" x2="676.2254" y2="78.3406">
<stop  offset="0" style="stop-color:currentcolor"/>
<stop  offset="1" style="stop-color:currentcolor"/>
</linearGradient>
<path class="st5" d="M621.1,61.1c-18.6,0-33.7,15.1-33.7,33.7v8.4v8.4c0,18.6,15.1,33.7,33.7,33.7h16.8c4.7,0,8.4-3.8,8.4-8.4
s-3.8-8.4-8.4-8.4h-16.8c-9.3,0-16.8-7.5-16.8-16.8h42.1c4.7,0,8.4-3.8,8.4-8.4v-8.4C654.7,76.2,639.7,61.1,621.1,61.1z
M604.2,94.8c0-9.3,7.5-16.8,16.8-16.8s16.8,7.5,16.8,16.8H604.2z"/>
<linearGradient id="SVGID_5_" gradientUnits="userSpaceOnUse" x1="291.0675" y1="233.0248" x2="661.0676" y2="48.0248">
<stop  offset="0" style="stop-color:currentcolor"/>
<stop  offset="1" style="stop-color:currentcolor"/>
</linearGradient>
<path class="st6" d="M545.3,61.1c-18.6,0-33.7,15.1-33.7,33.7v8.4v8.4c0,18.6,15.1,33.7,33.7,33.7h16.8c4.7,0,8.4-3.8,8.4-8.4
s-3.8-8.4-8.4-8.4h-16.8c-9.3,0-16.8-7.5-16.8-16.8h42.1c4.7,0,8.4-3.8,8.4-8.4v-8.4C578.9,76.2,563.9,61.1,545.3,61.1z
M528.4,94.8c0-9.3,7.5-16.8,16.8-16.8s16.8,7.5,16.8,16.8H528.4z"/>
<linearGradient id="SVGID_6_" gradientUnits="userSpaceOnUse" x1="308.5072" y1="267.9042" x2="678.5073" y2="82.9043">
<stop  offset="0" style="stop-color:currentcolor"/>
<stop  offset="1" style="stop-color:currentcolor"/>
</linearGradient>
<path class="st7" d="M671.6,27.6c-4.7,0-8.4,3.8-8.4,8.4v100.7c0,4.7,3.8,8.4,8.4,8.4s8.4-3.8,8.4-8.4V36
C680,31.4,676.2,27.6,671.6,27.6z"/>
<linearGradient id="SVGID_7_" gradientUnits="userSpaceOnUse" x1="270.0149" y1="190.9196" x2="640.0149" y2="5.9196">
<stop  offset="0" style="stop-color:currentcolor"/>
<stop  offset="1" style="stop-color:currentcolor"/>
</linearGradient>
<path class="st8" d="M499.8,61.1h-13.5v-8.4c0-9.3,7.5-16.8,16.8-16.8h8.4c4.7,0,8.4-3.8,8.4-8.4s-3.8-8.4-8.4-8.4h-8.4
c-18.6,0-33.7,15.1-33.7,33.7v84.2c0,4.7,3.8,8.4,8.4,8.4s8.4-3.8,8.4-8.4v-59h13.5c4.7,0,8.4-3.8,8.4-8.4
S504.4,61.1,499.8,61.1z"/>
</g>
</g>
</g>
</g>
</g>
<g id="Layer_2">
</g>
</svg>
