<svg xmlns="http://www.w3.org/2000/svg" viewBox="0 0 24 24" fill="currentColor">
<path d="M 21.46875 1.03125 C 20.13775 1.03125 19.8125 2.09475 19.8125 2.46875 C 19.8125 3.89775 21.36825 4.5625 22.03125 4.5625 C 22.74025 4.5625 24 4.22025 24 3.15625 C 24 2.05625 22.79975 1.03125 21.46875 1.03125 z M 14.09375 2.75 C 7.94075 2.75 4.5625 7.51325 4.5625 8.15625 C 4.5625 8.21825 4.54225 8.40625 4.78125 8.40625 C 5.12425 8.40625 7.09625 4.90625 12.28125 4.90625 C 16.07625 4.90625 18.493 6.85575 19.625 8.09375 C 20.145 8.66275 20.32475 9.09375 20.59375 9.09375 C 20.82375 9.09375 20.96875 8.92225 20.96875 8.65625 C 20.96875 7.95325 20.80875 2.75 14.09375 2.75 z M 0 9.90625 L 0 12.6875 C 0 12.6935 0.625 12.6875 0.625 12.6875 C 0.615 12.6775 0.65625 11.6875 0.65625 11.6875 L 1.1875 11.6875 C 1.4145 11.6875 2.03125 11.495 2.03125 10.75 C 2.03125 10.032 1.3185 9.90625 1.1875 9.90625 L 0 9.90625 z M 8.21875 9.90625 L 7.15625 12.71875 L 7.8125 12.71875 L 8 12.125 L 9.0625 12.125 L 9.3125 12.71875 L 9.96875 12.71875 L 8.9375 9.90625 L 8.21875 9.90625 z M 6.25 10.15625 L 6.25 10.46875 C 6.25 10.61675 6.11775 10.71875 5.96875 10.71875 L 5.84375 10.71875 L 5.84375 11.3125 L 6.1875 11.3125 C 6.1845 11.3095 6.1875 11.542 6.1875 12.125 C 6.1875 12.708 6.7275 12.75 6.8125 12.75 C 6.8975 12.75 6.9375 12.75 6.9375 12.75 L 7.15625 12.1875 C 7.15625 12.1875 7.084 12.21875 7 12.21875 C 6.882 12.21875 6.78125 12.114 6.78125 12 L 6.78125 11.3125 L 7.15625 11.3125 L 7.15625 10.75 L 6.75 10.75 L 6.75 10.15625 L 6.25 10.15625 z M 16.625 10.15625 L 16.625 10.46875 C 16.625 10.61675 16.49275 10.71875 16.34375 10.71875 L 16.21875 10.71875 L 16.21875 11.3125 L 16.5625 11.3125 C 16.5595 11.3095 16.5645 11.541 16.5625 12.125 C 16.5625 12.709 17.08475 12.75 17.21875 12.75 C 17.42075 12.75 17.5625 12.6875 17.5625 12.6875 L 17.5625 12.15625 C 17.5625 12.15625 17.459 12.21875 17.375 12.21875 C 17.257 12.21875 17.15625 12.114 17.15625 12 L 17.15625 11.3125 L 17.53125 11.3125 L 17.53125 10.75 L 17.15625 10.75 L 17.15625 10.15625 L 16.625 10.15625 z M 0.65625 10.4375 L 1 10.4375 C 1.186 10.4375 1.40625 10.56025 1.40625 10.78125 C 1.40625 10.97425 1.233 11.15625 1 11.15625 C 0.767 11.15625 0.66225 11.14925 0.65625 11.15625 L 0.65625 10.4375 z M 8.5625 10.59375 L 8.875 11.5625 L 8.21875 11.5625 L 8.5625 10.59375 z M 3.09375 10.6875 C 2.51875 10.6875 2.0625 11.13975 2.0625 11.71875 C 2.0625 12.29775 2.51875 12.78125 3.09375 12.78125 C 3.66875 12.78125 4.15625 12.29775 4.15625 11.71875 C 4.15625 11.13975 3.66875 10.6875 3.09375 10.6875 z M 12.90625 10.6875 C 12.00025 10.6875 11.90625 11.53775 11.90625 11.71875 C 11.90625 12.14675 12.1975 12.78125 12.9375 12.78125 C 13.6775 12.78125 13.84375 12.15625 13.84375 12.15625 L 13.34375 12 C 13.34375 12 13.24925 12.25 12.90625 12.25 C 12.56325 12.25 12.46875 11.875 12.46875 11.875 L 13.875 11.875 C 13.875 11.424 13.78525 10.6875 12.90625 10.6875 z M 15.34375 10.6875 C 14.97575 10.6875 14.75 10.9375 14.75 10.9375 L 14.75 10.71875 L 14.1875 10.71875 L 14.1875 12.71875 L 14.75 12.71875 L 14.75 11.59375 C 14.75 11.36875 14.91775 11.25 15.09375 11.25 C 15.24675 11.25 15.4375 11.32025 15.4375 11.53125 L 15.4375 12.71875 L 16.03125 12.71875 L 16.03125 11.34375 C 16.03125 11.04475 15.71175 10.6875 15.34375 10.6875 z M 22.46875 10.6875 C 21.96075 10.6875 21.53125 11.13975 21.53125 11.71875 C 21.53125 12.29775 21.96175 12.78125 22.46875 12.78125 C 22.707119 12.78125 22.899286 12.669437 23.0625 12.5 L 23.0625 12.71875 L 23.65625 12.71875 L 23.65625 10.71875 L 23.0625 10.71875 L 23.0625 10.96875 C 22.899114 10.798374 22.70786 10.6875 22.46875 10.6875 z M 4.46875 10.71875 L 4.46875 12.6875 L 5.0625 12.6875 C 5.0575 12.6875 5.0615 12.2295 5.0625 11.8125 C 5.0625 11.3775 5.384 11.3125 5.5 11.3125 C 5.616 11.3125 5.6875 11.34375 5.6875 11.34375 L 5.6875 10.71875 C 5.6875 10.71875 5.62625 10.71875 5.53125 10.71875 C 5.19325 10.71875 5.03125 11 5.03125 11 L 5.03125 10.71875 L 4.46875 10.71875 z M 20.15625 10.71875 L 20.15625 12.6875 L 20.75 12.6875 C 20.745 12.6875 20.75 12.2295 20.75 11.8125 C 20.75 11.3775 21.0715 11.3125 21.1875 11.3125 C 21.3035 11.3125 21.375 11.34375 21.375 11.34375 L 21.375 10.71875 C 21.375 10.71875 21.31375 10.71875 21.21875 10.71875 C 20.88075 10.71875 20.71875 11 20.71875 11 L 20.71875 10.71875 L 20.15625 10.71875 z M 9.71875 10.75 L 10.53125 12.71875 L 11.15625 12.71875 L 11.90625 10.75 L 11.25 10.75 L 10.84375 11.9375 L 10.375 10.75 L 9.71875 10.75 z M 17.875 10.75 L 17.875 12.09375 C 17.875 12.39275 18.1945 12.78125 18.5625 12.78125 C 18.9305 12.78125 19.125 12.5 19.125 12.5 L 19.125 12.71875 L 19.71875 12.71875 L 19.71875 10.75 L 19.125 10.75 L 19.125 11.875 C 19.125 12.1 18.95725 12.21875 18.78125 12.21875 C 18.62825 12.21875 18.46875 12.11725 18.46875 11.90625 L 18.46875 10.75 L 17.875 10.75 z M 12.90625 11.15625 C 13.25325 11.15625 13.28125 11.46875 13.28125 11.46875 L 12.5 11.46875 C 12.5 11.39175 12.59025 11.15625 12.90625 11.15625 z M 22.59375 11.21875 C 22.84675 11.21875 23.0625 11.43575 23.0625 11.71875 C 23.0625 12.00175 22.84775 12.21875 22.59375 12.21875 C 22.34075 12.21875 22.125 12.00175 22.125 11.71875 C 22.125 11.43575 22.33975 11.21875 22.59375 11.21875 z M 3.09375 11.25 C 3.34175 11.25 3.5625 11.44675 3.5625 11.71875 C 3.5625 11.99075 3.34175 12.21875 3.09375 12.21875 C 2.84575 12.21875 2.65625 11.99075 2.65625 11.71875 C 2.65625 11.44675 2.84575 11.25 3.09375 11.25 z M 10.34375 13.5625 C 9.63675 13.5625 9.0625 14.17125 9.0625 14.90625 C 9.0625 15.64025 9.63675 16.25 10.34375 16.25 C 11.05075 16.25 11.625 15.64125 11.625 14.90625 C 11.625 14.17125 11.05075 13.5625 10.34375 13.5625 z M 5.4375 13.625 L 6.1875 16.1875 L 6.5625 16.1875 L 7.1875 14.125 L 7.875 16.1875 L 8.25 16.1875 L 8.96875 13.625 L 8.59375 13.625 L 8.03125 15.625 L 7.40625 13.625 L 7.03125 13.625 L 6.375 15.59375 L 5.8125 13.625 L 5.4375 13.625 z M 12.0625 13.625 L 12.0625 16.1875 L 12.40625 16.1875 L 12.40625 15.125 L 12.78125 15.125 L 13.375 16.1875 L 13.78125 16.1875 L 13.1875 15.125 C 13.1885 15.124 13.78125 15.01075 13.78125 14.34375 C 13.78125 13.78575 13.2895 13.625 13.0625 13.625 L 12.0625 13.625 z M 14.21875 13.625 L 14.21875 16.1875 L 15.78125 16.1875 L 15.78125 15.84375 L 14.5625 15.84375 L 14.5625 13.625 L 14.21875 13.625 z M 16.09375 13.625 L 16.09375 16.1875 L 17.0625 16.1875 C 17.3145 16.1875 18.1875 15.971 18.1875 14.875 C 18.1885 13.778 17.2755 13.625 17.0625 13.625 L 16.09375 13.625 z M 10.34375 13.90625 C 10.85475 13.90625 11.28125 14.35225 11.28125 14.90625 C 11.28125 15.46025 10.85475 15.90625 10.34375 15.90625 C 9.83275 15.90625 9.4375 15.46025 9.4375 14.90625 C 9.4375 14.35125 9.83175 13.90625 10.34375 13.90625 z M 12.40625 13.9375 L 12.9375 13.9375 C 13.1255 13.9375 13.4375 14.03775 13.4375 14.34375 C 13.4375 14.64975 13.17925 14.8125 13.03125 14.8125 L 12.40625 14.8125 L 12.40625 13.9375 z M 16.4375 13.9375 C 16.4425 13.9325 16.8845 13.9375 17.0625 13.9375 C 17.2405 13.9375 17.84375 14.11125 17.84375 14.90625 C 17.84275 15.70225 17.183 15.875 17 15.875 L 16.4375 15.875 L 16.4375 13.9375 z M 3.6875 16.625 C 3.4575 16.625 3.3125 16.7965 3.3125 17.0625 C 3.3125 17.7655 3.44125 22.96875 10.15625 22.96875 C 16.30925 22.96875 19.71875 18.17425 19.71875 17.53125 C 19.71875 17.46925 19.74 17.3125 19.5 17.3125 C 19.157 17.3125 17.15375 20.8125 11.96875 20.8125 C 8.17475 20.8125 5.78825 18.863 4.65625 17.625 C 4.13625 17.056 3.9565 16.625 3.6875 16.625 z"/>
</svg>
