<svg xmlns="http://www.w3.org/2000/svg" xmlns:xlink="http://www.w3.org/1999/xlink" xmlns:v="https://vecta.io/nano">
<defs><path id="A" d="M2.3 29.5c0 12.8 8.4 23.7 19.9 27.4.3.1.7.2 1.1.3.7.4 1.2 1.2 1.2 1.9V65c0 1.1.9 2 2 2 .4 0 .8-.1 1.1-.3l.2-.2 11-8.7c19.8-2.4 31.6-14.2 31.6-28.3C70.5 11 51.5.7 31.1.7A28.8 28.8 0 0 0 2.3 29.5"/></defs>
<clipPath id="B"><use xlink:href="#A"/></clipPath>
<linearGradient id="C" gradientUnits="userSpaceOnUse" x1="5.871" y1="17.921" x2="61.743" y2="50.178"><stop offset="0" stop-color="currentColor"/><stop offset=".41" stop-color="currentColor"/><stop offset=".74" stop-color="currentColor"/><stop offset=".99" stop-color="currentColor"/><stop offset="1" stop-color="currentColor"/></linearGradient>
<path clip-path="url(#B)" fill="url(#C)" d="m19.3-28.9 79.9 46.2-45.8 79.3-79.9-46.1z"/>
<defs><path id="D" d="M22.2 56.8c.3.1.7.2 1.1.3.7.4 1.2 1.2 1.2 1.9v5.9c0 1.1.9 2 2 2 .4 0 .8-.1 1.1-.3l.2-.2 11-8.7c12.2-1.5-1.3-2.9-10.8-2.9-5.9 0-10.2.5-5.8 2"/></defs>
<clipPath id="E"><use xlink:href="#D"/></clipPath><linearGradient id="F" gradientUnits="userSpaceOnUse" x1="20.706" y1="60.861" x2="43.424" y2="60.861"><stop offset="0" stop-color="currentColor"/><stop offset=".51" stop-color="currentColor"/><stop offset="1" stop-color="currentColor"/></linearGradient><path clip-path="url(#E)" fill="url(#F)" d="M17.8 54.8h33.3V67H17.8z"/><path fill="currentColor" d="M44.8 33.7c0-15.2-13.5-27.5-30.3-27.8A28.7 28.7 0 0 0 2.3 29.5c0 12.8 8.4 23.7 19.9 27.4.3.1.7.2 1.1.3.7.4 1.2 1.2 1.2 1.9v.8C36.3 56 44.8 45.8 44.8 33.7"/><defs><path id="G" d="M6.8 13.9c6.5 8.6 15.3 14 25 14 11.4 0 21.5-7.3 28.1-18.7C52.5 3.6 42 .7 31.1.7 20.9.7 11.9 6 6.8 13.9"/></defs><clipPath id="H"><use xlink:href="#G"/></clipPath><linearGradient id="I" gradientUnits="userSpaceOnUse" x1="8.068" y1="15.26" x2="59.816" y2="15.26"><stop offset="0" stop-color="currentColor"/><stop offset=".17" stop-color="currentColor"/><stop offset=".38" stop-color="currentColor"/><stop offset=".62" stop-color="currentColor"/><stop offset=".87" stop-color="currentColor"/><stop offset="1" stop-color="currentColor"/></linearGradient><path clip-path="url(#H)" fill="url(#I)" d="M6.8.7h53.1v27.2H6.8z"/><defs><path id="J" d="M14.3 6c-3 2.1-5.6 4.8-7.5 7.9 4 5.3 9.3 9.9 15.5 12.2a26.9 26.9 0 0 0 21-.9c-3.9-11-15.3-19-28.8-19.3 0 .1-.1.1-.2.1"/></defs><clipPath id="K"><use xlink:href="#J"/></clipPath><linearGradient id="L" gradientUnits="userSpaceOnUse" x1="6.281" y1="17.135" x2="43.754" y2="17.135"><stop offset="0" stop-color="currentColor"/><stop offset=".59" stop-color="currentColor"/><stop offset="1" stop-color="currentColor"/></linearGradient><path clip-path="url(#K)" fill="url(#L)" d="M6.8 5.9h36.6v22H6.8v-22z"/><defs><path id="M" d="M28.9 54.7c0 3.4.7 6.6 1.9 9.5l8.1-6.4c17.8-2.2 29.1-12 31.2-24.2a27.4 27.4 0 0 0-14.8-4.4c-14.6 0-26.4 11.4-26.4 25.5"/></defs><clipPath id="N"><use xlink:href="#M"/></clipPath><linearGradient id="O" gradientUnits="userSpaceOnUse" x1="28.741" y1="46.362" x2="68.969" y2="46.362"><stop offset="0" stop-color="currentColor"/><stop offset="1" stop-color="currentColor"/></linearGradient><path clip-path="url(#N)" fill="url(#O)" d="M28.9 29.2h41.3v35H28.9z"/><defs><path id="P" d="M28.9 54.7c0 1.1.1 2.2.2 3.2 9.4-4.8 15.7-13.8 15.7-24.2 0-.8 0-1.6-.1-2.4-9.3 4-15.8 13-15.8 23.4"/></defs><clipPath id="Q"><use xlink:href="#P"/></clipPath><linearGradient id="R" gradientUnits="userSpaceOnUse" x1="28.797" y1="44.763" x2="45.173" y2="44.763"><stop offset="0" stop-color="currentColor"/><stop offset=".09" stop-color="currentColor"/><stop offset=".35" stop-color="currentColor"/><stop offset=".59" stop-color="currentColor"/><stop offset=".82" stop-color="currentColor"/><stop offset="1" stop-color="currentColor"/></linearGradient><path clip-path="url(#Q)" fill="url(#R)" d="M28.9 31.4h16V58h-16z"/><path fill="#fff" d="M32.5 12.3c1.8-1 4-1.5 6.5-1.5 4 0 7.4 1.4 10.2 4.2s4.2 6.2 4.2 10.1-1.4 7.3-4.2 10.1S43 39.4 39 39.4c-2.3 0-4.1-.3-5.5-1V47c0 1.2-.4 2.2-1.3 3.1s-1.9 1.3-3.2 1.3-2.3-.4-3.2-1.3-1.3-1.9-1.3-3.1V15.2c0-1.2.4-2.2 1.3-3.1s1.9-1.3 3.2-1.3 2.3.4 3.2 1.3l.3.2zm10.4 16.8a5.28 5.28 0 0 0 1.6-3.9c0-1.6-.5-2.9-1.6-3.9a5.22 5.22 0 0 0-3.8-1.6c-1.5 0-2.8.5-3.8 1.6a5.28 5.28 0 0 0-1.6 3.9c0 1.6.5 2.9 1.6 3.9s2.4 1.6 3.8 1.6 2.7-.5 3.8-1.6z"/>
</svg>
