<svg xmlns="http://www.w3.org/2000/svg" viewBox="0 0 150 150"><defs><style>.cls-1{fill:currentColor;}.cls-2{fill:none;}.cls-3{fill:currentColor;}.cls-4{fill:currentColor;}</style></defs><g id="logosandtypes_com" image-rendering="logosandtypes_com"><path id="Layer_3" class="cls-2" d="M0,0H150V150H0V0Z"/><path class="cls-4" d="M57.74,108.62L25,76.15c-6.07-6-6.13-15.78-.13-21.86,.04-.04,.09-.09,.13-.13L65.82,13.68c6.12-6.07,16.05-6.07,22.17,0l32.74,32.47c-33.87,13.01-53.51,34.65-62.98,62.47h0Z"/><path class="cls-1" d="M33.73,108.6l28.6,28.36c6.12,6.07,16.05,6.07,22.17,0l40.82-40.48c6.07-6,6.13-15.79,.13-21.86-.04-.04-.09-.09-.13-.13l-28.6-28.36s-62.98,62.46-62.98,62.46Z"/><path class="cls-3" d="M120.72,46.14l-12,11.91-12-11.91h24.01Z"/></g></svg>
