<svg version="1.1" xmlns="http://www.w3.org/2000/svg" xmlns:xlink="http://www.w3.org/1999/xlink" viewBox="0 0 446 134" xml:space="preserve">
<style type="text/css">
.st0{fill:currentColor;}
.st1{fill:currentColor;}
.st2{fill:currentColor;}
.st3{fill:currentColor;}
</style>
<g>
<g>
<path class="st0" d="M154.5,60.4c-6-2.4-8.6-3.9-8.6-7.4c0-1.5,0.4-2.4,1.2-3.2c1.5-1.3,4.6-2,8.5-2c2.3,0,4.7,0.2,7.2,0.7
c0.2,0,0.4,0.1,0.6,0.1c1.7,0,3.1-1.2,3.4-2.8c0-0.1,0-0.1,0-0.2c0.2-2-1.1-3.7-3-3.9c-2-0.3-5-0.8-8.3-0.8
c-5.7,0-10.1,1.2-12.9,3.6c-2.5,2-3.8,5-3.8,8.5c0,8.5,7.4,11.6,12.8,13.8l0.2,0.1c6.4,2.7,10.1,4.5,10.1,9.8c0,2.4-0.7,4-2.3,5.2
c-1.7,1.2-4.4,1.9-7.9,1.9c-3,0-6.2-0.5-9.1-1.4c-0.3-0.1-0.7-0.2-1.1-0.2c-1.6,0-2.9,1-3.3,2.4c-0.3,0.9-0.2,1.9,0.3,2.7
c0.5,0.8,1.2,1.4,2.1,1.7c2.1,0.7,6.4,1.7,11.2,1.7c4.9,0,9-1.1,12-3.3c3.3-2.5,5-6.2,5-10.8C168.9,66.5,160.5,62.9,154.5,60.4z"
/>
<path class="st0" d="M208,43.1c-4.1-2.3-8.7-2.3-10.9-2.3c-2.2,0-6.8,0-10.9,2.3c-5.1,2.9-7.7,8.3-7.7,16.1v13.2
c0,7.8,2.6,13.2,7.7,16.1c4.1,2.3,8.7,2.3,10.9,2.3c2.2,0,6.8,0,10.9-2.4c5.1-2.9,7.7-8.3,7.7-16.1V59.2
C215.7,51.4,213.1,46,208,43.1z M208.8,59.2v13.2c0,9.5-4.5,11.4-11.8,11.4c-7.3,0-11.8-1.9-11.8-11.4V59.2
c0-9.5,4.5-11.4,11.8-11.4C204.3,47.8,208.8,49.7,208.8,59.2z"/>
<path class="st0" d="M317.1,43.1c-4.1-2.3-8.7-2.3-10.9-2.3c-2.2,0-6.8,0-10.9,2.3c-5.1,2.9-7.7,8.3-7.7,16.1v13.2
c0,7.8,2.6,13.2,7.7,16.1c4.1,2.3,8.7,2.3,10.9,2.3c2.2,0,6.8,0,10.9-2.4c5.1-2.9,7.7-8.3,7.7-16.1V59.2
C324.9,51.4,322.3,46,317.1,43.1z M318,59.2v13.2c0,9.5-4.5,11.4-11.8,11.4c-7.3,0-11.8-1.9-11.8-11.4V59.2
c0-9.5,4.5-11.4,11.8-11.4C313.5,47.8,318,49.7,318,59.2z"/>
<path class="st0" d="M354.9,40.8c-4.7,0-8.9,0.7-12.7,2.2c-2.8,1.1-4.5,2.2-5.5,2.9c-1.3,0.9-1.2,2.4-1.2,2.4v0.6v38.5
c0,2,1.5,3.5,3.5,3.5c1.9,0,3.5-1.6,3.5-3.5V50.5c0.1,0,0.1,0,0.1,0c0,0,0.1,0,0.1-0.1c3.3-1.7,7.2-2.6,12.1-2.6
c4.6,0,7.8,1,9.5,3c0,0,0,0,0,0.1c1.6,1.7,2.4,4.6,2.4,8.5v28c0,2,1.5,3.5,3.5,3.5c1.9,0,3.4-1.5,3.4-3.5v-28
c0-5.7-1.4-10.3-4.1-13.3C366.6,42.6,361.6,40.8,354.9,40.8z"/>
<g>
<path class="st0" d="M387.8,24.4c-2.4,0-4.3,2-4.3,4.3c0,2.5,2,4.5,4.3,4.5c2.4,0,4.5-2,4.5-4.5
C392.2,26.3,390.2,24.4,387.8,24.4z"/>
<path class="st0" d="M387.8,40.8c-1.8,0-3.4,1.6-3.4,3.5v43.1c0,2,1.5,3.5,3.4,3.5c2,0,3.5-1.5,3.5-3.5V44.3
C391.3,42.4,389.7,40.8,387.8,40.8z"/>
</g>
<path class="st0" d="M438.2,83.7c-0.5-1.3-1.8-2.1-3.1-2.1c-0.4,0-0.9,0.1-1.3,0.2c-0.1,0-0.1,0-0.2,0.1c-2.8,1-6.2,1.5-9.8,1.5
c-7,0-15.3-3.1-15.3-18s8.3-18,15.3-18c6,0,9.5,1.4,9.8,1.5c0,0,0.1,0,0.1,0.1c0.4,0.2,0.9,0.3,1.4,0.3c1.4,0,2.6-0.8,3.1-2.1
c0.4-0.8,0.4-1.8,0.1-2.6c-0.3-0.9-1-1.6-1.9-2l0,0c-0.6-0.2-5.1-2.1-12.7-2.1c-3.7,0-9,0.7-13.7,4.1c-5.8,4.2-8.7,11.2-8.7,20.9
c0,9.7,2.9,16.7,8.7,20.9c4.6,3.4,10,4.1,13.7,4.1c4.4,0,8.5-0.7,12.3-2c0.1,0,0.1,0,0.2-0.1c0.1,0,0.3-0.1,0.4-0.2
c0.8-0.4,1.4-1.1,1.7-1.9C438.7,85.5,438.7,84.5,438.2,83.7z"/>
<g>
<path class="st0" d="M277,84C278.2,84.3,277,84,277,84L277,84z"/>
<path class="st0" d="M277,84L277,84c0,0-0.4-0.1-0.4-0.1c-2.6-0.5-5.9-2.3-8.5-4.8c-3-2.9-4.5-7.1-4.5-12.5V47.7H276
c2.3,0,4.1-2.2,3.3-4.6c-0.5-1.4-1.9-2.4-3.4-2.4h-12.4V24.2c0-2.5-2.6-4.4-5.1-3.1c-1.2,0.7-1.8,2-1.8,3.3v16.4h-23
c0.5-3.5,1.9-6.5,4.1-8.7c2.9-2.9,6.8-4,9.5-4.4c1.8-0.2,3.2-1.6,3.2-3.5c0-1.9-1.6-3.5-3.5-3.5c-0.1,0-0.2,0-0.2,0
c-3.7,0.5-9.3,2.1-13.8,6.4c-4.2,4.1-6.5,9.9-6.6,17.1l0,0.1v43c0,1.7,1.1,3.2,2.8,3.5c2.3,0.5,4.2-1.3,4.2-3.4V47.8h23.3v18.7
c0,7.4,2.2,13.3,6.6,17.5c3.8,3.8,8.5,6,12.1,6.8c2.5,0.5,4.7-1.7,4.2-4.1C279.2,85.4,278.2,84.3,277,84z"/>
</g>
</g>
<g>
<path class="st1" d="M43.2,98.1L13.5,68.4c-5.6-5.6-5.6-14.6,0-20.1l37.1-37.1c5.6-5.6,14.6-5.6,20.1,0l29.8,29.8L43.2,98.1z"/>
<path class="st2" d="M21.4,98.1l26,26c5.6,5.6,14.6,5.6,20.1,0L104.6,87c5.6-5.6,5.6-14.6,0-20.1l-26-26L21.4,98.1z"/>
<polygon class="st3" points="100.5,40.9 89.6,51.8 78.6,40.9 		"/>
</g>
</g>
</svg>
