<svg viewBox="0 0 512 513" fill="none" xmlns="http://www.w3.org/2000/svg">
<path fill-rule="evenodd" clip-rule="evenodd" d="M142.314 63.4913C175.646 43.7316 214.522 32.3798 256 32.3798C298.069 32.3798 337.463 44.0577 371.11 64.3421C371.185 64.4079 371.261 64.4737 371.338 64.5395C371.846 64.9793 372.356 65.4203 372.795 65.8678C373.224 66.3161 373.513 66.5552 374.19 66.8242C374.385 67.904 375.13 68.7843 375.675 69.428L375.676 69.4282L375.715 69.4744L375.766 69.5302C375.96 69.742 376.166 69.9674 376.432 70.3611C376.477 70.4207 376.519 70.4749 376.562 70.5274C377.006 71.0628 377.674 71.4117 385.17 75.3227C385.399 75.4024 385.967 75.502 386.226 75.502C386.475 75.502 386.744 75.4223 387.003 75.3227L387.387 75.1491C387.674 75.3583 387.961 75.5681 388.247 75.7786C388.071 76.1115 387.981 76.4944 388.009 76.9068L388.069 77.6441L384.233 75.5817C383.396 75.1533 382.41 75.3227 381.782 76.05C381.473 76.4186 381.314 76.8869 381.334 77.3551C380.846 77.1291 380.351 76.9137 379.866 76.7026C379.539 76.5601 379.216 76.4196 378.903 76.2791C377.887 75.8507 376.92 75.4223 375.904 74.9341C375.794 74.8943 375.396 74.7648 375.246 74.7249L370.883 73.9876C370.594 73.9478 370.006 74.0275 369.677 74.1371C369.547 74.1769 369.388 74.2566 369.269 74.3363L366.818 73.5991L364.038 72.0548C363.918 71.995 363.38 71.8257 363.261 71.8057L359.425 71.1083C359.4 71.1048 359.371 71.1 359.34 71.0945L359.275 71.0829C359.137 71.0584 358.97 71.0286 358.857 71.0286H356.157C355.808 71.0286 355.221 71.2777 354.932 71.477C354.543 71.6862 354.264 72.0349 354.135 72.4234L353.686 73.5592L351.773 74.0076C351.325 74.0972 350.787 74.5655 350.488 74.954C350.339 75.1932 350.219 75.4622 350.159 75.771L349.482 76.9467C349.213 77.2157 349.014 77.5843 348.934 77.9728L347.968 79.278C347.768 79.5271 347.569 80.095 347.499 80.4238C347.459 80.6828 347.459 80.9119 347.499 81.161L347.728 82.3367L346.991 90.0182C346.971 90.1576 347.011 90.4067 347.051 90.6558C346.872 90.7554 346.722 90.9148 346.583 91.0643L342.279 96.3646C341.741 97.0222 341.701 97.9985 342.209 98.6959L348.157 107.553L349.014 109.516C349.133 109.805 349.323 110.064 349.562 110.253C350.906 111.396 352.853 111.715 354.455 111.977L354.633 112.007C354.843 112.007 355.044 112.043 355.253 112.081L355.28 112.086L354.892 115.394C354.812 115.942 354.972 116.48 355.36 116.908L357.124 118.971C357.139 119.008 357.154 119.045 357.169 119.083C357.184 119.122 357.199 119.161 357.214 119.199C357.278 119.364 357.341 119.528 357.422 119.678L354.304 120.724C354.075 120.824 353.796 120.953 353.607 121.153C353.527 121.232 353.258 121.501 353.178 121.601L351.734 123.434C351.305 123.444 350.887 123.643 350.528 123.952L349.342 125.068C349.213 125.198 348.934 125.586 348.834 125.746C348.803 125.795 348.738 125.949 348.683 126.077L348.683 126.077C348.65 126.155 348.62 126.224 348.605 126.254L347.997 127.649L348.296 125.805C348.316 125.706 348.296 125.118 348.296 125.028L348.296 125.027C348.137 124.132 348.133 124.108 337.028 113.88L336.889 111.349C336.869 111.229 336.759 110.681 336.739 110.572L336.5 109.944C336.46 109.825 336.291 109.356 336.211 109.247L336.199 109.226C335.743 108.429 335.712 108.376 332.126 106.716L331.678 105.59C331.11 104.574 330.373 104.106 329.088 104.026H326.348C325.868 104.071 325.509 104.105 325.214 104.261C324.332 104.726 324.025 106.279 322.801 112.475C322.781 112.614 322.761 112.943 322.761 113.073C322.761 113.391 322.821 113.68 322.94 113.929C323.11 114.268 323.289 114.597 323.488 114.926H323.15C322.841 114.826 322.552 114.826 322.392 114.826C322.223 114.826 321.576 114.926 321.416 114.985C320.978 115.085 320.569 115.274 320.141 115.663C319.981 115.743 319.822 115.802 319.633 115.862C319.577 115.886 319.522 115.908 319.465 115.931C319.255 116.015 319.016 116.111 318.616 116.331C318.507 116.4 318.228 116.6 318.148 116.679L317.959 116.809C316.833 116.809 316.405 117.237 314.751 118.951C314.452 119.439 314.243 120.375 314.372 120.923L314.92 123.175C315.159 123.803 315.388 124.092 316.166 124.66C316.056 124.769 315.976 124.929 315.936 125.008C315.817 125.198 315.757 125.377 315.697 125.586L315 129.173C314.94 129.89 315.189 130.608 315.697 131.155C316.106 131.604 317.142 132.241 318.447 132.012L323.737 130.916C323.857 130.886 324.146 130.807 324.266 130.767L328.799 128.665C328.835 128.644 328.87 128.624 328.906 128.604C329.075 128.51 329.229 128.423 329.337 128.316C329.373 128.477 329.416 128.639 329.462 128.811L329.462 128.814L329.464 128.818C329.481 128.884 329.499 128.952 329.517 129.022C329.53 129.071 329.543 129.121 329.556 129.173C329.564 129.189 329.572 129.203 329.58 129.216C329.592 129.235 329.604 129.251 329.616 129.268L329.616 129.268C329.627 129.284 329.639 129.3 329.651 129.318C329.659 129.331 329.667 129.346 329.675 129.362L328.968 129.87C328.799 130.01 328.619 130.179 328.48 130.418C328.41 130.508 328.191 130.886 328.131 130.996L327.145 133.606C326.985 134.344 327.145 135.081 327.593 135.709C328.071 136.366 328.878 136.795 329.984 136.894H331.738C331.756 136.894 331.78 136.89 331.806 136.886L331.815 136.884C331.822 136.883 331.829 136.882 331.836 136.881C331.86 136.877 331.884 136.874 331.907 136.874L331.15 139.226C331.11 139.425 331.07 139.624 331.07 139.833C331.07 139.953 331.09 140.341 331.11 140.471C331.27 141.238 331.459 142.115 331.658 142.872C331.778 143.161 332.455 144.038 332.674 144.247C333.023 144.655 333.521 144.875 334.069 144.895C335.275 144.934 336.291 144.954 337.257 144.954L341.073 148.202L340.804 149.756C340.792 149.857 340.811 150.157 340.827 150.404C340.831 150.478 340.836 150.547 340.839 150.604C340.842 150.659 340.844 150.704 340.844 150.733L341.342 152.965C339.539 152.636 339.32 152.596 332.047 151.649C331.967 151.63 331.887 151.63 331.847 151.63L331.658 151.593C331.125 151.489 330.58 151.383 328.35 150.982C328.071 150.922 327.802 150.922 327.553 151.002L326.677 151.251C326.089 151.41 325.601 151.819 325.371 152.407C325.313 152.518 325.253 152.642 325.187 152.775L325.187 152.776C325.118 152.915 325.045 153.066 324.963 153.224L323.618 153.493C323.13 153.572 322.721 153.861 322.432 154.25C322.345 154.372 322.204 154.533 322.076 154.678L322.024 154.738C321.635 155.166 321.466 155.794 321.536 156.332C321.924 158.843 322.412 162.19 322.761 164.781L321.247 172.133C321.247 172.293 321.247 172.642 321.267 172.781C321.302 173.004 321.322 173.211 321.369 173.703L321.369 173.708L321.369 173.709L321.386 173.887C321.436 174.355 321.675 174.823 322.044 175.132L323.209 176.218L325.082 181.319C325.581 182.525 327.065 183.222 328.43 182.993L331.927 182.296L333.501 184.049L321.516 194.361C321.326 194.51 320.958 195.098 320.878 195.288C320.759 195.447 320.699 195.626 320.659 195.796L318.736 204.045L310.208 210.162L306.282 211.756C305.814 211.946 305.425 212.294 305.216 212.763C303.648 216.286 301.102 220.495 298.821 224.268L298.621 224.599L298.269 225.189C297.398 226.651 296.549 228.076 295.662 229.64L290.989 239.852C290.869 240.121 290.79 240.44 290.83 240.749C290.909 241.914 290.909 242.502 290.909 243.14C290.909 243.409 290.969 243.708 291.109 243.957C291.119 244.057 291.338 244.525 291.397 244.585L292.623 246.547L293.988 256.201L288.03 267.988C287.641 268.725 287.781 269.661 288.379 270.269L290.869 272.78L290.868 272.89C290.848 274.022 290.828 275.189 290.79 276.357C290.75 276.556 290.71 276.785 290.73 277.024L290.79 277.911C290.79 278.28 290.889 278.638 291.109 278.967L292.972 281.866L295.811 285.293L301.958 294.081C302.118 294.3 302.317 294.469 302.506 294.609L306.222 297.468L309.102 301.095C309.15 301.125 309.242 301.224 309.322 301.311C309.375 301.368 309.423 301.42 309.451 301.444L310.487 302.28C310.507 302.3 310.594 302.378 310.681 302.455C310.768 302.532 310.855 302.609 310.875 302.629L311.383 303.038C311.495 303.142 311.692 303.208 311.871 303.267L311.935 303.289C311.972 303.301 312.008 303.314 312.041 303.327L320.759 308.448L323.598 310.918C323.897 311.148 324.246 311.307 324.614 311.367C324.714 311.387 325.152 311.427 325.272 311.427C326.677 311.427 328.111 310.819 329.247 310.291L335.743 309.205H345.826C345.905 309.205 346.403 309.165 346.483 309.145L355.32 308.189C355.549 308.228 355.789 308.228 355.978 308.189L357.163 307.979C357.383 307.939 357.582 307.88 357.771 307.76L361.467 305.698L365.403 305.648L367.963 305.06L370.066 310.958C370.384 311.795 371.231 312.393 372.098 312.263L379.022 311.715L381.802 315.591L382.25 316.717L376.88 328.085C376.641 328.583 376.631 329.171 376.84 329.679L381.433 341.256L382.37 343.806L382.559 346.138C382.559 346.15 382.565 346.2 382.573 346.265C382.58 346.324 382.589 346.395 382.597 346.46C382.603 346.514 382.61 346.563 382.614 346.598C382.617 346.625 382.619 346.642 382.619 346.646C382.639 346.935 382.868 347.463 383.008 347.692C383.058 347.853 383.113 348.012 383.167 348.166C383.184 348.213 383.2 348.259 383.216 348.305L383.232 348.352C383.262 348.439 383.29 348.525 383.316 348.609C383.456 348.937 383.575 349.256 383.655 349.675L383.964 351.159L382.888 354.776L380.347 368.435L376.213 372.131L373.921 377.581L372.716 378.069C372.556 378.129 371.978 378.537 371.819 378.657C371.55 378.866 371.351 379.145 371.201 379.454C370.498 381.186 369.83 382.786 369.176 384.35L369.172 384.36C368.846 385.141 368.524 385.912 368.202 386.687C368.123 386.886 368.043 387.464 368.043 387.664C368.003 387.863 368.043 388.092 368.083 388.281L369.328 393.343C367.146 401.423 364.347 410.589 362.135 416.796C362.095 416.895 362.015 417.164 362.015 417.284L361.717 418.818L359.993 423.431C359.381 424.701 359.039 425.348 358.263 426.817L358.263 426.817L358.262 426.82C358.028 427.263 357.755 427.781 357.422 428.412L355.47 430.275C354.333 431.568 353.423 433.344 352.612 434.928L352.551 435.048L351.873 436.353C351.604 436.841 351.564 437.419 351.754 437.967C351.953 438.495 352.361 438.923 352.909 439.113C354.115 439.581 355.091 439.581 355.958 439.581C356.197 439.581 356.406 439.541 356.645 439.461C357.383 439.192 358.239 438.724 359.017 438.296L359.545 437.987C362.793 437.359 366.997 436.522 370.653 435.725L377.229 432.697C377.349 432.657 377.598 432.537 377.697 432.477L388.089 425.254C388.151 425.231 388.201 425.177 388.249 425.126C388.262 425.112 388.275 425.098 388.288 425.085L388.577 424.905C389.802 424.069 392.522 422.186 393.279 421.538L398.52 415.939L400.722 413.777L402.256 412.77H403.342C403.601 412.77 403.85 412.691 404.079 412.611C405.175 412.143 406.072 411.306 406.789 410.589L412.996 404.262C413.136 404.123 413.265 403.973 413.345 403.774L417.041 396.77L417.689 395.793H418.077C418.366 395.793 418.635 395.724 418.894 395.604C419.96 395.116 420.817 394.179 421.475 393.422L422.76 392.376C422.8 392.336 422.83 392.301 422.86 392.266C422.89 392.232 422.919 392.197 422.959 392.157C425.719 390.234 428.877 387.843 430.82 386.339H431.209C431.554 386.339 431.899 386.26 432.235 386.075C432.156 386.177 432.073 386.283 431.989 386.392C431.677 386.793 431.334 387.233 430.98 387.703C430.86 387.823 430.531 388.281 430.432 388.441L427.722 393.093L422.491 397.647L422.489 397.649L422.435 397.711C422.087 398.118 421.783 398.563 415.646 407.55C415.138 408.407 415.098 409.363 415.059 410.549C415.006 411.23 415.283 411.881 415.803 412.28C375.179 453.814 318.546 479.63 256 479.63C245.321 479.63 234.814 478.878 224.53 477.423C224.72 477.247 224.875 477.033 224.981 476.786C225.26 476.148 225.18 475.421 224.792 474.843L224.752 474.803C224.761 474.808 224.771 474.812 224.782 474.817C224.816 474.833 224.856 474.852 224.901 474.883C225.18 474.952 225.878 474.952 226.147 474.923C226.426 474.863 226.695 474.743 226.934 474.584C227.352 474.275 227.691 473.747 227.781 473.209C227.86 472.621 227.631 471.884 227.243 471.455L225.529 469.473C225.14 469.044 225.081 469.005 222.919 467.988C222.729 467.929 222.261 467.859 222.042 467.859C221.776 467.804 221.492 467.926 221.231 468.04L221.231 468.04L221.165 468.068C221.008 468.116 220.858 468.142 220.714 468.166C220.502 468.202 220.303 468.236 220.119 468.337C219.302 468.805 218.874 469.991 219.183 470.868C219.282 471.216 219.491 471.625 219.83 472.253L216.831 471.256C216.692 471.186 216.383 471.087 216.144 471.027C216.001 470.993 215.85 470.974 215.717 470.957L215.646 470.947L214.749 470.17C214.653 470.074 214.434 469.933 214.29 469.839L214.289 469.839L214.235 469.804L214.201 469.782L211.79 468.397L209.279 464.701C209.239 464.621 208.951 464.292 208.911 464.252C208.403 463.784 207.934 463.286 207.446 462.738C207.237 462.479 206.948 462.309 206.609 462.19L204.089 461.333C204.089 460.885 203.909 460.436 203.6 460.068C201.668 457.796 199.924 455.694 198.151 453.472C197.971 453.263 197.802 453.084 197.563 452.964L197.025 452.655C197.503 452.057 197.583 451.201 197.194 450.513C197.075 450.244 196.945 450.015 196.806 449.836L199.336 448.022C199.765 447.733 200.113 446.976 200.173 446.468C200.233 446.259 200.233 446.04 200.193 445.831L199.535 441.666C199.496 441.258 199.296 440.869 199.007 440.57C198.599 440.182 198.171 439.853 197.662 439.584L198.071 439.424C198.459 439.305 199.027 438.807 199.257 438.448C199.416 438.279 199.535 438.059 199.565 437.83L200.502 434.672L200.95 434.134C201.169 433.895 201.279 433.606 201.359 433.317L202.216 429.342L202.544 428.993C202.724 428.804 202.953 428.296 203.033 428.037C203.112 427.827 203.152 427.558 203.132 427.319L203.033 425.217L203.132 425.107C203.66 424.559 203.83 423.742 203.541 423.035L199.665 413.042C204.138 410.571 209.648 407.592 213.892 405.371C214.44 405.062 214.829 404.534 214.898 403.916L215.367 400.837C215.566 399.551 215.77 398.212 215.977 396.858L215.977 396.857L215.978 396.847C216.506 393.39 217.048 389.84 217.549 386.849C217.588 386.59 217.549 386.162 217.509 385.913L214.869 374.416L215.974 372.991L217.877 372.274C218.136 372.174 218.366 372.014 218.565 371.845L218.953 371.437C219.103 371.297 219.242 371.128 219.342 370.968L222.729 364.582C222.762 364.549 222.775 364.509 222.79 364.462C222.793 364.453 222.796 364.443 222.799 364.433L226.635 357.578C226.774 357.349 226.894 356.642 226.934 356.392C226.944 356.203 226.934 355.984 226.894 355.795L224.772 345.005C224.652 344.427 224.284 343.919 223.736 343.65C218.117 340.81 210.624 337.074 204.567 334.155C204.557 334.147 204.531 334.137 204.494 334.127C204.435 334.109 204.348 334.089 204.262 334.069L204.262 334.069C204.143 334.041 204.026 334.014 203.989 333.996L188.696 331.933L183.415 329.911L177.467 325.547C177.45 325.538 177.418 325.521 177.377 325.5L177.376 325.5C177.23 325.423 176.973 325.289 176.88 325.258L175.554 324.73L175.734 324.381C176.003 323.833 175.873 322.907 175.594 322.359C175.455 322.05 175.285 321.701 175.106 321.462C174.738 320.954 174 320.476 173.472 320.645L173.263 320.685L168.819 316.969L163.26 309.048C163.18 308.739 163.021 308.46 162.792 308.231L162.204 307.554C161.995 307.315 161.726 307.145 161.427 307.026L151.852 302.662L148.873 300.311C148.475 299.982 147.927 299.822 147.379 299.902L141.541 300.679L134.377 293.944C134.786 293.984 134.925 293.934 135.194 293.835L135.702 293.635C136.39 293.366 136.868 292.739 136.948 292.001C137.107 290.527 137.107 289.431 137.047 288.484L139.07 286.552C139.458 286.163 139.678 285.655 139.678 285.117V284.101C139.678 283.055 138.881 282.198 137.844 282.138C135.314 281.959 133.132 281.889 131.07 281.869C131.07 281.806 131.075 281.744 131.08 281.684C131.083 281.653 131.086 281.622 131.087 281.593C131.089 281.571 131.089 281.55 131.089 281.53C131.089 281.102 131.089 281.062 130.273 278.751C131.04 278.262 131.498 277.445 131.498 276.499C131.498 276.07 131.498 276.051 130.332 272.813C130.292 272.275 130.063 271.497 129.575 270.013C129.844 269.844 130.103 269.585 130.312 269.236C130.916 268.177 130.645 267.345 129.598 264.124L129.575 264.055C129.557 264.004 129.534 263.959 129.51 263.914C129.484 263.862 129.457 263.81 129.436 263.746C129.575 263.278 129.595 262.76 129.436 262.272C130.412 261.843 131.07 260.947 131.149 259.781C131.149 259.753 131.149 259.727 131.149 259.702C131.149 259.684 131.148 259.667 131.148 259.65C131.137 259.311 131.034 258.975 130.103 255.926L130.103 255.925C129.675 255.029 129.027 254.6 128.389 254.411C128.389 254.351 128.389 254.291 128.409 254.212C128.489 253.454 128.25 252.657 127.742 252.07C127.264 251.512 126.556 251.173 125.66 251.143H125.002C124.813 250.226 124.145 249.31 122.92 248.961C121.256 248.515 119.149 248.149 117.157 247.802L117.155 247.801H117.155L117.121 247.795C116.802 247.738 116.49 247.681 116.195 247.626C115.566 247.51 115.01 247.408 114.611 247.347C114.282 247.247 113.654 247.208 113.305 247.247C112.628 247.407 112.08 247.756 111.672 248.264C110.914 247.676 110.137 247.088 109.4 246.55L107.746 245.305C107.338 244.916 106.321 244.488 105.773 244.637C104.917 244.717 104.219 245.145 103.731 245.962L103.671 245.902L97.8927 242.654L95.2325 241.678C94.9301 241.504 94.636 241.423 94.0323 241.256L94.032 241.255L93.8676 241.21C93.5986 241.14 93.1303 241.14 92.8215 241.2C92.8215 241.2 92.7816 241.21 92.7418 241.21H91.2174C91.0082 241.21 90.789 241.25 90.5599 241.329C90.4603 241.369 90.0119 241.549 89.9222 241.608L89.7031 241.718C89.7031 241.678 89.7429 241.658 89.7429 241.658C89.7828 241.549 89.8226 241.449 89.8625 241.329C89.8625 241.308 89.8739 241.275 89.8845 241.245L89.8846 241.245L89.891 241.226C89.8957 241.212 89.8996 241.199 89.9014 241.189C89.902 241.186 89.9023 241.183 89.9023 241.18H91.9248H92.0743C93.5588 241.06 94.4753 239.875 94.565 238.958C94.5929 238.809 94.6158 238.685 94.6257 238.561C94.6722 237.972 94.4252 237.36 93.0111 233.858L93.0109 233.857L93.0108 233.857C92.5027 232.731 91.1876 232.074 90.0717 232.383C89.5835 232.502 88.9259 232.751 88.2983 233.688C87.9548 234.279 87.5921 235.011 87.241 235.719C87.1542 235.895 87.0681 236.068 86.9832 236.238L86.764 236.697C85.249 235.638 83.6233 234.538 81.9636 233.414L81.9617 233.413L81.9614 233.413C81.3406 232.993 80.715 232.569 80.0887 232.144L79.2513 231.577C76.32 229.594 73.3988 227.617 70.9427 225.807C70.6737 225.608 69.8567 225.418 69.508 225.399C69.2689 225.379 69.1194 225.379 68.9202 225.438L63.301 226.624C63.2561 226.637 63.1977 226.649 63.1344 226.661L63.1343 226.661C63.0014 226.688 62.8475 226.719 62.7531 226.773C61.7169 227.142 61.687 227.162 58.9372 233.299C58.6483 233.02 58.2996 232.811 57.9609 232.691C57.6719 232.612 57.383 232.572 57.0941 232.612L48.1772 233.917C47.4 234.017 46.7724 234.574 46.5432 235.342L44.5207 242.834L41.5418 243.372L39.0909 236.507L41.6016 223.296L43.8233 216.581L45.8259 213.423L46.3407 212.621C48.4301 209.364 50.6721 205.87 52.6506 202.962H55.7291L60.083 207.126C60.7107 207.744 61.6671 207.864 62.4243 207.415C64.2077 206.399 64.915 204.357 65.4232 202.573L70.9825 204.456L70.325 220.278C70.2851 221.055 70.7135 221.792 71.3711 222.121C73.0449 222.997 74.2305 222.997 75.0873 222.997C75.5755 222.997 76.0836 222.808 76.4323 222.459L77.2094 221.752C77.2195 221.853 77.2397 221.971 77.2572 222.074C77.2648 222.118 77.2718 222.159 77.2774 222.195C77.2845 222.241 77.2891 222.278 77.2891 222.3L78.146 224.751C78.3352 225.448 78.8434 226.325 80.557 226.624H83.1474C83.247 226.624 83.3168 226.624 83.3566 226.604C84.5322 226.465 85.4389 225.648 85.678 224.651C85.9271 223.974 85.9271 223.974 84.9905 218.972C84.6817 217.747 83.7452 216.99 82.4998 216.99H80.5172L82.0216 211.948C82.4998 208.601 83.0278 205.293 83.6356 202.025L88.4577 193.716H88.8861C89.175 193.716 89.4341 193.656 89.7031 193.537L95.5613 189.671C98.9288 187.35 102.506 184.899 105.465 182.916C105.704 182.777 105.873 182.587 106.032 182.368L106.054 182.334C106.526 181.602 106.711 181.316 106.79 180.894L106.898 180.416C107.369 178.335 107.838 176.265 108.384 174.238C108.503 174.318 108.623 174.408 108.812 174.567C109.629 175.215 110.755 175.155 111.482 174.428L119.901 165.989C120.021 165.869 120.27 165.6 120.349 165.461L121.495 163.608L130.532 162.681C131.01 162.622 131.458 162.402 131.797 162.054L134.347 159.254C134.846 158.706 134.985 157.929 134.736 157.232L134.537 156.703L136.29 154.253H138.113C138.313 154.253 138.482 154.233 138.661 154.173C138.781 154.153 139.339 153.964 139.439 153.924L145.944 150.785L145.556 152.37C145.396 152.947 145.556 153.595 145.944 154.073L146.462 154.741C147.01 155.378 147.927 155.617 148.664 155.319C151.241 154.356 154.282 153.197 157.254 152.064C158.005 151.778 158.751 151.493 159.484 151.214L163.429 149.699C163.708 149.6 163.958 149.411 164.197 149.191L164.794 148.514C164.914 148.354 165.014 148.185 165.083 148.006H167.345H167.425C168.361 147.966 168.55 147.846 171.201 145.943C171.39 145.744 171.759 145.226 171.858 144.967C172.366 143.801 171.998 143.024 171.201 142.167L171.818 139.448C171.898 138.9 171.629 137.883 171.26 137.435C170.772 136.897 170.105 136.658 169.039 136.588L169.036 136.588C167.913 136.658 167.849 136.662 161.995 142.825L160.53 141.191C160.562 141.069 160.593 140.946 160.625 140.824L160.703 140.522C160.847 139.969 160.99 139.419 161.118 138.88H161.158C161.666 138.88 162.174 138.68 162.523 138.332L165.342 135.632C165.791 135.203 165.96 134.227 165.91 133.609L165.85 133.121C165.791 132.673 165.591 132.244 165.283 131.935H174.269L174.199 131.975C173.841 132.204 173.044 132.752 172.954 133.838C172.874 134.466 173.044 134.984 173.393 135.472L172.346 137.146C172.057 137.714 171.978 138.78 172.247 139.348C172.835 140.494 173.223 140.633 179.022 141.619L179.49 142.795C179.508 142.816 179.527 142.84 179.549 142.867C179.809 143.186 180.381 143.887 181.742 143.961L183.734 143.921C184.272 143.841 184.591 143.762 185.109 143.333C185.518 143.652 186.046 143.841 186.723 143.961H188.477C188.596 143.961 188.726 143.961 188.825 143.921C189.702 143.762 189.702 143.761 193.617 141.042L193.617 141.042L193.617 141.042L193.64 141.018L193.669 140.988C193.892 140.759 194.367 140.271 194.514 139.537C194.525 139.47 194.535 139.403 194.546 139.334C194.557 139.269 194.567 139.204 194.578 139.136L194.578 139.135C194.632 138.799 194.693 138.424 194.763 137.923C194.763 136.837 194.395 136.249 193.538 135.751L194.026 134.934C194.235 134.426 194.315 133.529 194.126 133.061C193.807 132.324 193.498 132.015 191.944 131.268L195.152 128.668C195.969 127.92 196.258 126.834 195.869 125.858C195.64 125.28 195.212 124.812 194.584 124.563L196.596 121.654C196.612 121.627 196.631 121.597 196.652 121.563C196.669 121.534 196.688 121.501 196.706 121.464C197.005 120.996 197.095 120.408 196.965 119.87C196.766 119.183 196.218 118.665 195.52 118.505L191.356 117.479C191.475 117.3 191.555 117.14 191.635 116.951C192.066 115.721 192.35 114.696 192.61 113.757L192.611 113.753C192.675 113.522 192.738 113.297 192.8 113.075L192.95 112.547C193.149 111.73 192.84 110.864 192.093 110.395L191.376 109.907C191.433 109.773 191.454 109.638 191.473 109.513L191.475 109.499L191.944 107.944C192.756 102.737 193.349 99.8049 193.501 99.0511L193.501 99.0503L193.501 99.0501C193.521 98.9536 193.533 98.893 193.538 98.8681C193.707 98.0312 193.378 97.2142 192.641 96.7659L192.213 96.477C193.03 96.208 193.269 95.929 194.952 92.9401C195.02 92.9664 195.085 92.9913 195.148 93.0154L195.22 93.0433C195.297 93.0727 195.37 93.101 195.441 93.1294C195.5 93.1368 195.614 93.1582 195.741 93.182L195.741 93.182C195.954 93.222 196.204 93.2689 196.298 93.2689H197.543C198.728 93.229 198.788 93.2091 203.71 88.0881C204.089 88.3073 204.547 88.4567 204.886 88.4567C205.829 88.4567 206.152 88.2837 213.186 84.5259L214.201 83.9833C214.341 83.9435 214.53 83.794 214.629 83.7143C215.018 83.3855 215.486 82.6782 215.546 82.2L215.547 82.1961C215.706 81.2234 215.72 81.1368 211.322 75.7539L213.444 73.283C213.607 72.9846 213.735 72.7524 213.787 72.5044C213.971 71.6345 213.235 70.5699 209.917 65.7713L209.917 65.771L209.917 65.7709C209.807 65.5816 209.479 65.3027 209.299 65.1931C209.14 65.0735 208.99 64.9739 208.831 64.9141L208.562 64.8145C209.069 64.4668 209.692 63.7911 210.948 62.4281L211.182 62.1743C211.242 62.1145 211.322 62.0348 211.362 61.9551C211.67 62.0746 211.989 62.0746 212.298 61.9949C214.213 61.5769 216.091 60.343 217.773 59.2374L217.897 59.1555L217.898 59.1553C218.366 58.8465 218.834 58.5377 219.262 58.2787H220C220.159 58.2787 220.508 58.2189 220.627 58.1791L223.815 57.4418C224.284 57.2127 224.712 56.864 225.14 56.2363L225.18 56.6846C225.2 57.0134 225.29 57.3223 225.449 57.6012C225.449 57.6012 225.449 57.6411 225.489 57.661C225.33 58.1093 225.22 58.5178 225.101 58.9662C225.021 59.1555 225.021 59.5839 225.021 59.7831C225.021 59.9477 225.066 60.1348 225.104 60.2922L225.121 60.361L225.609 61.706C225.758 62.1543 226.386 62.7322 226.774 62.9713C227.043 63.1307 227.352 63.2204 227.711 63.2204C229.574 63.2602 231.327 63.2802 232.712 63.2204L234.536 63.5691L234.984 64.7248L233.43 68.8893C233.31 69.1982 233.35 69.8558 233.39 70.1746C233.45 70.603 233.639 71.0115 233.938 71.3203C233.739 71.8284 233.758 72.4063 233.988 72.9343C234.141 73.267 234.36 73.6581 234.57 74.0326L234.675 74.2196L235.024 74.8771C235.143 75.0963 235.273 75.2856 235.452 75.445L232.613 75.4649C231.596 75.5845 231.596 75.5845 227.283 79.221C227.043 79.4302 226.715 79.9981 226.575 80.287C226.515 80.4066 226.466 80.576 226.446 80.7553L225.718 84.7106C225.659 85.0394 225.698 85.3682 225.798 85.697C225.957 86.1254 226.187 86.4741 226.466 86.7829C226.466 86.8489 226.452 86.9149 226.436 86.9922L226.426 87.042L225.549 87.3309C225.37 87.4106 225.18 87.5102 225.021 87.6099C225.001 87.6253 224.978 87.6421 224.953 87.6605C224.672 87.8684 224.124 88.2741 223.895 89.0246C223.795 89.3733 223.776 89.742 223.855 90.1006L226.107 98.9279C226.206 99.3563 226.466 99.705 226.774 99.9839C227.163 100.293 227.472 100.482 227.761 100.622C228.02 100.721 228.289 100.801 228.548 100.801H230.64L231.925 103.013C232.065 103.252 232.244 103.441 232.473 103.62C233.121 104.109 234.008 104.417 234.944 104.208L239.029 103.272C239.288 103.212 239.497 103.092 239.696 102.973L242.675 100.094C243.315 99.4213 243.975 98.7296 244.642 98.0299C246.872 95.6913 249.186 93.2648 251.134 91.1866L257.281 89.0047C257.401 88.9848 257.889 88.6958 257.989 88.6361L258.865 88.0184L259.872 88.3272C260.031 88.3671 260.4 88.4268 260.559 88.4268C261.582 88.4268 261.872 88.2091 265.189 85.7213L265.222 85.697L271.299 82.3095L274.567 82.9372C274.736 82.9771 274.916 82.9771 275.105 82.9372L276.081 82.7778C279.897 81.383 284.998 79.49 288.804 77.9955C288.944 77.9557 289.103 77.8561 289.233 77.7564C290.02 77.7564 290.677 77.3081 291.006 76.6306L291.743 75.1162C292.192 74.2196 292.64 73.2631 293.009 72.4661C293.128 72.1572 293.208 71.7886 293.148 71.42C293.088 70.872 293.048 70.5233 292.68 70.1546C293.128 69.8558 293.457 69.3676 293.557 68.8096L294.573 62.2938C294.603 61.9551 294.573 61.5665 294.413 61.2178C294.643 60.7097 294.643 60.1318 294.393 59.5839C293.756 58.2389 293.128 56.9736 292.51 55.768C292.859 55.6584 293.208 55.3396 293.437 54.9909L294.294 55.24C294.961 55.499 295.679 55.3795 296.247 54.9112L297.93 53.4965C298.339 53.1478 298.598 52.6197 298.618 52.0717V51.8825C298.618 51.454 298.498 50.9459 298.269 50.6171C297.133 49.0031 295.001 48.5349 293.307 48.1662C293.067 48.1027 292.83 48.0474 292.569 47.9863C292.256 47.9132 291.908 47.8318 291.474 47.7179C291.437 47.7179 291.335 47.709 291.227 47.6996C291.106 47.6892 290.979 47.6781 290.926 47.6781C290.209 47.6781 289.512 47.8275 288.824 48.0666C288.734 47.698 288.495 47.3293 288.187 47.0504C287.795 46.7317 287.537 46.3131 287.221 45.8023L287.13 45.6556C286.712 44.8685 286.124 43.9419 285.148 43.1648C283.474 41.7799 281.282 41.4312 279.369 41.1323C276.002 40.7239 272.505 41.0427 269.197 41.3515C267.932 41.4512 266.706 41.4113 265.541 41.3715C264.196 41.2918 262.811 41.2519 261.685 41.3715C261.151 41.4147 260.696 41.6199 260.292 41.8017C260.138 41.871 259.992 41.9369 259.852 41.9892C259.344 41.7999 258.277 41.491 257.48 41.6803C255.261 42.2471 253.125 43.8978 251.055 45.4979L250.825 45.6755C250.573 45.8742 250.315 46.0671 250.06 46.2573C249.842 46.42 249.627 46.5808 249.42 46.7415C249.381 46.6618 249.351 46.622 249.271 46.5423C248.932 45.9246 248.295 45.5559 247.597 45.536C245.764 45.4961 245.355 45.3766 244.827 44.719C244.718 44.5198 244.598 44.2308 244.499 43.9021C244.19 42.9257 243.582 41.1323 241.131 40.674C241.095 40.674 240.975 40.666 240.842 40.6571C240.68 40.6463 240.5 40.6342 240.434 40.6342C239.776 40.6342 239.168 40.7637 238.68 40.9032H238.601C238.634 40.8864 238.639 40.8696 238.652 40.8289C238.655 40.8213 238.657 40.8129 238.66 40.8036C238.68 39.887 238.68 37.735 235.532 36.8981C235.143 36.7984 234.715 36.7386 234.207 36.7386C233.699 36.7386 231.875 36.8184 230.7 37.5955C229.634 38.2929 229.305 39.1497 229.305 39.4785C229.026 39.7176 228.797 39.8372 228.329 40.0264C228.28 40.0476 228.23 40.0692 228.179 40.0914L228.179 40.0915C227.797 40.257 227.341 40.4539 226.964 40.7438C226.27 41.1846 225.752 41.7315 225.237 42.2762L225.236 42.2763L225.14 42.3777L225.112 42.4083C224.533 43.0272 223.921 43.6805 223.078 43.5334C222.55 43.2943 221.982 43.3142 221.484 43.5534C219.88 44.2508 219.262 45.2072 219.083 46.1039C218.366 46.7814 217.389 47.9072 217.16 49.033L216.964 49.1518C216.658 49.3365 216.266 49.5736 215.755 49.8898L215.586 47.3792C215.367 46.3928 214.081 45.5759 213.245 45.6755C212.408 45.7452 211.67 46.1537 210.973 47.1102L207.705 49.2323C207.546 49.3319 207.157 49.6408 207.018 49.7803L203.73 53.4367C203.232 54.0145 203.033 55.1503 203.341 55.8278C203.361 55.8876 203.381 55.9274 203.401 55.9673C203.381 56.0071 203.341 56.047 203.301 56.047C202.933 55.499 202.315 55.2998 200.352 54.8714C200.352 54.8714 200.382 54.8714 200.402 54.8315C200.422 54.8315 200.811 54.2935 200.811 54.2736L202.235 51.7031C202.564 51.1551 202.644 50.2784 202.375 49.7005C202.056 48.9832 201.09 48.5349 200.313 48.4552C199.472 48.4747 199.418 48.5134 196.399 50.658L196.218 50.7865C196.108 50.8662 195.779 51.2548 195.68 51.3743L194.086 54.0942C193.886 53.9846 193.657 53.9049 193.418 53.8651C193.657 53.4765 193.827 52.9684 193.807 52.5799C193.747 51.5636 193.149 51.0655 191.864 50.0891C191.475 49.85 190.967 49.7404 190.459 49.85C190.091 49.8898 189.881 49.9695 188.307 50.7068L187.988 50.5773C186.843 50.0094 185.408 50.8264 184.94 51.2149C184.551 51.5836 184.163 51.9721 183.824 52.3308L183.764 52.1515C183.395 51.3743 182.489 50.8662 181.652 50.9459L175.166 51.6234C175.066 51.6433 174.678 51.7629 174.608 51.8027L170.035 53.626C168.978 54.0859 168.738 54.469 167.654 56.2007L167.594 56.2961L167.554 56.3758C167.477 56.3684 167.404 56.3584 167.333 56.3486C167.211 56.3319 167.096 56.316 166.976 56.316H163.28C163.11 56.316 162.948 56.352 162.779 56.3897L162.752 56.3957C162.693 56.4251 162.424 56.4922 162.258 56.5336L162.258 56.5337C162.228 56.5409 162.203 56.5474 162.182 56.5527C162.16 56.5582 162.144 56.5624 162.134 56.5651L154.503 59.7433C154.383 59.8031 153.955 60.0521 153.845 60.1318L149.362 62.9912C148.664 63.4794 148.316 63.9477 148.116 64.5654C147.927 65.3226 148.256 66.1993 148.864 66.7074C148.644 66.8967 148.475 67.1159 148.296 67.4048L147.807 66.0798C147.618 65.5218 147.17 65.1133 146.642 64.9141C146.562 64.665 146.443 64.4458 146.273 64.2366C145.785 63.6289 144.928 63.32 144.151 63.6289L143.354 63.868L142.866 63.6289C142.75 63.5646 142.54 63.5206 142.314 63.4913ZM32.4215 260.348C34.4186 364.532 108.025 451.509 205.958 473.985L205.872 473.946C205.384 473.727 205.035 473.319 204.846 472.87L203.81 472.462C203.73 472.432 203.381 472.253 203.301 472.193L202.524 471.724C202.468 471.724 202.41 471.735 202.352 471.745C202.322 471.75 202.292 471.756 202.263 471.759L202.25 471.761C202.231 471.763 202.213 471.764 202.196 471.764H202.096C201.787 471.764 201.05 471.555 200.781 471.376L198.748 470.33C198.21 470.21 197.872 470.011 197.523 469.782C197.374 469.682 197.075 469.473 196.826 469.254C196.397 468.925 195.969 468.267 195.809 467.66L195.779 467.64L194.972 467.351C193.727 466.922 192.332 466.434 191.236 465.697C191.027 465.517 190.848 465.348 190.698 465.129L190.21 464.352L187.54 463.206C187.191 463.047 186.922 462.818 186.683 462.499L185.557 460.795C185.525 460.779 185.506 460.763 185.489 460.736C185.487 460.733 185.485 460.729 185.483 460.726C185.481 460.722 185.479 460.719 185.478 460.715C184.88 460.715 184.272 460.476 183.714 460.068C180.516 457.836 180.207 457.597 180.088 456.86C179.251 456.66 178.324 456.411 177.557 455.963C177.408 455.883 177.268 455.794 177.129 455.654L176.292 454.817C176.161 454.689 176.028 454.56 175.895 454.43L175.893 454.429L175.891 454.426C175.476 454.022 175.049 453.607 174.628 453.163L170.712 450.404C170.613 450.324 170.384 450.125 170.304 450.025C155.808 435.569 152.749 431.723 141.391 417.356C136.29 410.272 130.063 400.837 125.779 394.322L124.693 393.226L123.779 392.699L123.776 392.697L123.771 392.694C120.984 391.087 120.005 390.523 119.084 389.918C119.067 389.915 119.049 389.91 119.031 389.904C119 389.895 118.969 389.883 118.936 389.871L118.935 389.871C118.875 389.849 118.809 389.824 118.735 389.808L107.915 384.02C106.361 382.914 97.813 372.602 91.885 364.861C91.885 364.861 91.7256 364.662 91.5562 364.472C91.4765 364.393 91.1477 364.004 91.0879 363.885L87.2123 358.086L79.3913 351.391C79.2718 351.252 79.1522 351.082 79.0825 350.923L75.1072 342.205C75.0275 342.076 74.898 341.448 74.8781 341.288C74.7785 340.85 74.8582 340.382 75.0674 339.993L75.2866 339.585L75.1471 339.445C74.933 339.259 74.7773 339.12 74.656 339.012C74.512 338.883 74.4167 338.798 74.3301 338.728C74.101 338.489 73.9416 338.2 73.8419 337.911L73.6725 337.343C73.1246 335.55 72.5766 333.687 72.0785 331.854C72.0785 331.804 72.0325 331.605 71.9976 331.454C71.989 331.417 71.9811 331.383 71.9748 331.355C71.9651 331.312 71.9589 331.282 71.9589 331.276C71.9191 331.037 71.9191 330.768 71.9589 330.528L73.553 322.588L74.639 318.931L75.3463 315.315C74.2305 309.865 73.2441 304.395 72.467 298.966L71.4508 297.371C71.2615 297.76 70.9228 298.109 70.4943 298.268L67.7744 299.454C66.8977 299.802 65.8815 299.514 65.3833 298.776L62.8328 295.16C62.6577 295.121 62.473 295.044 62.2418 294.947L62.225 294.94C61.956 294.821 61.6671 294.652 61.2586 294.393C60.8302 294.143 60.5114 293.735 60.3819 293.247L60.3619 293.167L58.449 290.955L57.911 291.184C57.1339 291.533 56.1575 291.304 55.6096 290.636L54.4838 289.281C54.4041 289.202 54.1351 288.773 54.0952 288.674L49.2631 274.197C49.2332 274.098 49.1934 273.988 49.1934 273.909L45.8857 271.956C45.8157 271.915 45.5343 271.704 45.2889 271.519C45.1149 271.389 44.9589 271.272 44.9093 271.238L42.6477 268.847C42.5182 268.728 42.3986 268.578 42.3189 268.419L41.0934 266.476C40.944 266.317 40.8045 266.157 40.7049 265.968C40.7049 265.948 40.6526 265.831 40.6003 265.714C40.548 265.597 40.4957 265.48 40.4957 265.46L38.523 260.578L35.9426 261.923C35.1754 262.331 34.209 262.192 33.6012 261.564L32.4215 260.348ZM450.353 366.518C458.906 351.536 465.776 335.476 470.705 318.596C470.499 318.948 470.187 319.23 469.815 319.377L468.022 320.204L460.789 331.193C460.59 331.502 460.241 331.761 459.912 331.91L458.378 334.092L455.867 338.117C455.548 339.174 455.07 340.608 454.213 342.631C454.134 342.85 453.974 343.059 453.805 343.238L452.789 344.275L450.198 348.549L449.68 351.059L446.661 359.369V360.385C446.641 360.674 446.562 360.963 446.442 361.222L445.805 362.527C445.496 363.224 445.157 363.922 444.828 364.569C444.639 364.938 444.46 365.327 444.29 365.695H444.758H445.336C445.924 365.695 446.582 365.715 447.199 365.884C447.399 365.944 447.558 366.024 447.707 366.104C448.235 366.412 448.933 367.269 448.604 368.555C449.567 367.395 450.058 366.827 450.353 366.518ZM478.704 276.332C478.797 275.304 478.883 274.273 478.962 273.241L474.877 276.496C474.757 276.576 474.548 276.705 474.428 276.765C474.269 276.825 474.139 276.905 473.94 276.944C473.956 277.002 473.968 277.073 473.977 277.141C473.992 277.249 474 277.348 474 277.373L473.88 278.688L474.06 278.847C474.219 279.007 474.329 279.196 474.408 279.395C474.995 278.987 475.578 278.569 476.162 278.15C476.59 277.843 477.018 277.537 477.447 277.233L478.704 276.332ZM432.235 386.075L432.255 386.05L432.245 386.07L432.235 386.075ZM0 256C0 397.156 114.844 512.01 256 512.01C397.156 512.01 512 397.156 512 256C512 114.844 397.156 0 256 0C114.844 0 0 114.844 0 256ZM60.0081 237.222C59.7853 237.111 59.5735 237.005 59.4054 236.856L53.8959 251.083L53.876 255.148V255.228L58.4888 256.154C58.728 256.194 58.9571 256.314 59.1564 256.433L59.2297 256.485C59.4509 256.639 59.9074 256.959 60.0132 257.091L60.5512 257.758L60.8216 258.083C61.9943 259.492 63.3695 261.143 64.2475 262.64C64.4069 262.929 64.5264 263.278 64.5264 263.637C64.5264 264.025 64.4866 264.523 64.4467 264.932L63.8988 281.769L65.7917 285.197L71.2913 284.28C71.3181 284.28 71.3449 284.279 71.372 284.276C71.3867 284.275 71.4015 284.274 71.4164 284.273L71.4361 284.271L71.4369 284.271C71.4911 284.265 71.548 284.26 71.6102 284.26C71.6243 284.26 71.6389 284.261 71.6539 284.262C71.6744 284.264 71.6956 284.267 71.7171 284.27L71.718 284.27C71.7575 284.275 71.7984 284.28 71.8393 284.28L72.3873 284.34C72.6961 284.38 73.005 284.489 73.2441 284.669L75.8644 286.472L78.7038 279.896C78.8035 279.687 78.923 279.508 79.0824 279.338C79.192 279.179 79.6603 278.751 79.8396 278.651L88.8263 273.649C89.434 273.321 90.1514 273.321 90.7591 273.649C91.0291 273.814 91.344 273.982 91.6693 274.155C91.8961 274.276 92.128 274.399 92.3532 274.526L93.4391 275.114L94.8439 273.749C95.4616 273.171 96.3583 273.012 97.0956 273.4L97.6435 273.669C97.9126 273.789 98.1317 273.968 98.3011 274.177L102.934 279.767L110.506 281.69L111.831 280.992L111.868 280.975C112.024 280.901 112.174 280.83 112.359 280.793L112.937 280.673C113.206 280.643 113.445 280.643 113.714 280.673L121.037 282.258C121.226 282.327 121.405 282.447 121.535 282.586L125.45 286.063L125.371 284.708C125.351 284.649 125.351 284.609 125.351 284.569C123.916 284.38 123.079 283.244 122.94 282.158L122.9 281.51L122.9 281.51C122.86 280.673 122.82 279.836 122.74 279C122.78 278.282 122.999 277.685 123.308 277.216C123.288 277.156 123.288 277.117 123.288 277.057C123.249 276.439 123.209 275.811 123.189 275.194C122.611 274.725 122.242 274.038 122.163 273.281L122.151 273.055C122.095 271.995 122.043 270.999 122.043 270.013C122.063 269.435 122.222 268.927 122.471 268.538C122.451 268.499 122.451 268.459 122.451 268.459L122.412 267.154C121.774 266.904 120.798 266.337 120.608 264.882L120.568 263.537L120.568 263.48C120.548 262.215 120.529 260.968 120.529 259.701C120.568 259.153 120.678 258.665 120.937 258.257C119.941 257.828 119.363 257.031 119.243 256.005V255.497L118.038 255.885C117.918 255.925 117.221 256.045 117.101 256.045C116.484 256.045 115.896 255.806 115.368 255.417C114.88 254.949 114.531 254.64 114.142 254.311C114.063 254.212 113.953 254.112 113.833 254.022C113.405 254.411 112.797 254.7 112.08 254.74H111.96H105.873C104.847 254.68 104.04 254.212 103.601 253.474C103.522 253.494 103.442 253.514 103.362 253.514H93.8676C93.8201 253.522 93.7915 253.53 93.7674 253.537C93.7308 253.547 93.7045 253.554 93.6384 253.554H93.5587C93.5318 253.554 93.4695 253.549 93.3958 253.543C93.361 253.541 93.3237 253.537 93.2863 253.534L93.2847 253.534C93.1677 253.524 93.0506 253.514 93.0107 253.514C92.9116 253.514 92.6968 253.474 92.5343 253.443C92.4681 253.431 92.4106 253.42 92.3731 253.415L91.5853 253.285C86.5026 252.446 84.5198 252.119 83.6754 251.512V252.847C83.5957 253.943 83.2071 254.64 82.4997 255.148C82.3702 255.268 82.171 255.377 82.0215 255.437L78.6739 256.742C78.5569 256.792 78.2366 256.871 78.0423 256.918L77.9466 256.941C77.7175 256.961 77.4883 256.961 77.2692 256.922L76.9802 256.862C76.7411 256.822 76.512 256.742 76.3127 256.603L75.0275 255.865C73.8618 255.228 72.5367 254.471 71.5703 253.634C71.1419 253.355 70.7533 252.737 70.6338 252C70.4943 251.213 70.6736 250.436 71.1419 249.778C72.9651 247.556 73.1644 247.327 74.1009 247.128C74.2902 247.128 74.6389 247.168 74.9677 247.247L74.9976 247.148L77.0898 247.536C78.7337 247.815 80.4573 248.124 81.8422 248.533C82.2307 248.632 82.6193 248.861 82.9481 249.21C82.9481 248.533 83.0278 247.795 83.516 247.168C83.516 247.12 83.5114 247.075 83.5067 247.028C83.5015 246.976 83.496 246.921 83.496 246.859C83.4761 246.739 83.4761 246.62 83.496 246.45L77.3887 247.347C77.1695 247.367 76.781 247.347 76.5917 247.307C76.4123 247.287 76.243 247.228 76.0836 247.148C75.1271 246.699 74.5692 245.922 74.4496 244.876L74.4895 243.163C74.5163 242.901 74.5251 242.639 74.534 242.371C74.5384 242.241 74.5428 242.11 74.5493 241.977L73.5529 241.06C73.8618 241.997 73.9814 243.043 73.8618 244.099C73.4732 247.208 71.1817 249.579 68.4718 249.579C67.5353 249.579 66.6286 249.27 65.8316 248.722C64.1578 247.516 63.2811 245.265 63.5102 242.963C63.4214 243.011 63.2588 243.072 63.1143 243.127L63.1141 243.127C63.0154 243.164 62.9251 243.198 62.8726 243.222C62.3445 243.392 61.7567 243.352 61.2685 243.083C60.5113 242.654 60.1228 242.306 59.8139 241.369L59.8117 241.355C59.4651 239.146 59.4259 238.897 59.6545 238.141L60.053 237.245L60.0081 237.222ZM184.352 95.2315C185.049 96.0086 185.009 97.2141 184.272 97.9613L182.758 99.4757L183.266 99.9041L189.802 96.3573C189.762 96.3274 189.722 96.3075 189.682 96.2876L189.659 96.2722C183.105 91.8233 182.56 91.4532 183.844 89.433L184.252 88.9249L183.595 88.5164C182.769 88.647 182.083 88.7625 181.504 88.8599L181.504 88.8599L181.503 88.8601C179.036 89.2752 178.525 89.3611 177.557 88.885L179.33 89.8216C179.381 89.855 179.443 89.9025 179.508 89.9515L179.508 89.9521C179.597 90.0197 179.69 90.09 179.759 90.1304L184.352 95.2315ZM188.985 75.2657L182.947 80.7753L187.132 80.7553L188.516 78.9421C188.616 78.8524 188.865 78.6133 188.945 78.5336L191.685 76.1823C190.659 75.8535 189.762 75.5447 188.985 75.2657ZM156.645 89.164C156.445 89.3533 156.196 89.4928 155.947 89.5924L150.338 91.7644C147.847 92.7607 145.317 93.757 143.155 94.5939L136.758 99.2367L136.699 100.173C136.659 100.721 136.41 101.229 135.981 101.558L135.782 101.717C136.37 101.927 136.798 102.395 136.948 102.973L138.432 108.034L141.072 112.159L141.132 112.278L141.235 112.114C141.383 111.876 141.535 111.632 141.68 111.382C141.929 110.953 142.358 110.644 142.866 110.525L152.221 107.277L156.834 99.8643C157.073 99.4957 157.422 99.2068 157.85 99.0474L161.935 97.5529C162.672 96.7359 163.43 95.7396 164.197 94.7035C164.301 94.5673 164.407 94.4303 164.512 94.2928C165.581 92.9008 166.692 91.4523 167.953 90.2102L167.634 90.1105L166.259 90.5987C166.06 90.6784 165.512 90.8179 165.283 90.8179C164.565 90.8179 163.649 90.8179 162.363 90.4293C161.427 90.1504 160.849 89.2039 160.999 88.2275L161.078 87.6198H157.79C157.691 88.0681 157.462 88.4567 157.093 88.7356C157.072 88.7536 157.05 88.7722 157.027 88.7914C156.898 88.9002 156.746 89.0285 156.645 89.164ZM177.268 88.7357C176.959 88.5564 176.7 88.3073 176.551 88.0682C175.947 86.9707 176.541 85.9812 176.755 85.6254L176.76 85.6173L179.37 82.6583C179.41 82.6284 179.719 82.3295 179.759 82.2896C180.307 81.9609 180.735 81.6919 181.044 81.4926L174.678 82.738C174.717 82.9771 174.717 83.1863 174.678 83.4254L174.06 87.1217C174.229 87.1616 174.389 87.2114 174.528 87.2911L177.268 88.7357ZM441.192 377.701L437.107 380.191C437.067 380.211 437.047 380.231 437.007 380.271L441.331 373.417C441.716 373.646 442.149 373.734 442.54 373.813C442.587 373.823 442.634 373.832 442.68 373.842C442.716 373.85 442.751 373.857 442.786 373.865C442.945 373.925 443.114 373.925 443.314 373.925H443.354H443.643C443.679 373.918 443.715 373.912 443.749 373.906C444.021 373.858 444.218 373.824 444.44 373.656C443.523 374.821 442.457 376.146 441.192 377.701ZM342.827 182.804L347.19 182.136C347.38 182.116 347.539 182.057 347.728 181.977L348.157 181.788C348.351 181.71 348.498 181.595 348.634 181.487L348.634 181.487L348.645 181.479L352.401 178.211L353.258 177.254C353.796 176.607 354.344 175.989 354.971 175.441C355.509 174.903 355.709 174.116 355.47 173.379L353.895 168.597L354.244 167.56L356.018 166.803H356.645C356.874 166.803 357.124 166.763 357.343 166.684C357.383 166.684 357.851 166.494 357.891 166.474L360.102 165.378C360.71 165.09 361.119 164.512 361.198 163.864L361.627 160.267L361.896 159.779L367.495 160.576C367.894 160.576 368.322 160.477 368.631 160.267L371.41 158.434H371.978C371.819 158.633 371.66 158.823 371.47 159.042C371.422 159.1 371.382 159.146 371.348 159.184L371.347 159.185C371.211 159.339 371.169 159.385 371.122 159.68L371.119 159.688C371.056 159.875 370.885 160.386 371.082 161.593C371.224 162.091 371.341 162.609 371.454 163.112L371.454 163.113C371.5 163.313 371.544 163.511 371.59 163.705C371.63 163.884 371.679 164.043 371.759 164.193C371.939 164.542 372.128 164.821 372.347 165.03C372.247 165.398 372.208 165.847 372.287 166.474L372.556 167.62C372.678 168.174 372.806 168.729 372.936 169.29L372.937 169.293L372.937 169.297C373.103 170.014 373.271 170.742 373.433 171.496C373.821 173.148 375.164 173.478 375.733 173.617L375.734 173.618C376.063 173.688 376.392 173.688 376.721 173.618L376.77 173.606C376.895 173.576 377.158 173.513 377.209 173.478L380.029 172.373C381.065 172.034 381.742 171.107 381.742 170.031L381.742 169.981C381.742 169.972 381.742 169.963 381.742 169.954C381.742 169.947 381.741 169.94 381.741 169.932C381.732 169.591 381.623 169.252 380.347 165.289C380.068 164.472 379.49 163.884 378.634 163.575C378.666 163.465 378.7 163.351 378.735 163.233L378.736 163.23L378.736 163.228L378.739 163.219C378.864 162.797 379.005 162.322 379.152 161.782C379.155 161.767 379.158 161.753 379.161 161.739L379.167 161.709L379.167 161.707C379.176 161.656 379.185 161.607 379.212 161.553L382.758 165.05C382.852 165.169 383.157 165.368 383.337 165.486L383.375 165.511L383.416 165.538L390.789 169.623L391.516 170.151L392.193 171.785L387.391 170.988C386.983 170.928 385.966 171.297 385.598 171.476C384.801 171.825 384.333 172.642 384.432 173.518C384.532 174.156 384.621 174.624 384.801 175.501C384.861 175.83 385.01 176.149 385.209 176.378C386.563 178.079 388.713 179.443 390.633 180.66L390.809 180.771C390.984 180.867 391.134 180.963 391.284 181.058C391.321 181.082 391.358 181.106 391.396 181.13H391.277C389.992 181.319 389.115 182.336 389.095 183.73C388.906 182.834 388.746 181.997 388.597 181.18C388.517 180.732 388.248 180.323 387.889 180.034L386.255 178.749L382.968 176.886C382.519 176.627 382.061 176.517 381.553 176.517C381.314 176.517 380.776 176.607 380.576 176.687L377.578 177.703L359.385 178.789C359.246 178.809 358.857 178.888 358.728 178.948L346.872 183.262H342.518C342.578 183.187 342.625 183.11 342.672 183.033C342.719 182.956 342.767 182.879 342.827 182.804ZM421.285 175.64C421.246 175.361 421.126 175.092 420.957 174.863L420.548 174.315C420.685 174.475 420.835 174.639 420.985 174.802L420.986 174.803C421.088 174.914 421.189 175.024 421.285 175.132C421.754 175.64 422.222 176.148 422.371 176.238L424.434 180.502C423.348 180.423 422.182 180.343 421.096 180.313L420.08 180.233L420.957 179.416C421.365 179.048 421.554 178.52 421.554 177.972C421.554 176.926 421.445 176.338 421.285 175.64ZM421.873 154.618C422.142 154.309 422.341 153.941 422.431 153.532C422.551 153.184 422.571 152.695 422.571 152.287L422.76 149.617C422.859 149.782 423.013 149.934 423.183 150.101C423.217 150.135 423.253 150.169 423.288 150.205C426.656 153.254 427.261 153.801 427.931 153.899C428.077 153.921 428.227 153.921 428.409 153.921C428.798 153.921 429.067 153.881 429.385 153.692C429.734 153.532 430.003 153.323 430.232 153.024C430.305 152.921 430.377 152.819 430.448 152.72L430.605 152.5C430.867 152.131 431.109 151.791 431.328 151.47C431.478 151.629 431.657 151.779 431.876 151.938L438.332 156.412L441.052 158.514L438.133 158.942C435.373 157.039 435.214 156.94 434.437 156.94C434.207 156.94 433.819 157.039 433.62 157.109C432.305 157.577 430.78 158.145 429.266 158.723C428.458 159.03 427.65 159.329 426.876 159.615L426.865 159.62C426.412 159.787 425.971 159.95 425.55 160.108L424.284 160.028L421.893 157.388C421.833 157.288 421.794 157.189 421.754 157.069C421.913 156.76 422.003 156.332 422.023 155.824L421.873 154.618ZM372.128 116.868L372.905 116.639C373.772 116.37 374.35 115.553 374.31 114.657L374.081 110.273L374.818 108.579L375.844 103.946C375.884 103.757 375.884 103.598 375.884 103.408L379.391 104.923C379.799 105.082 380.228 105.122 380.656 105.002C381.017 106.261 381.493 107.032 382.008 107.868L382.041 107.922C382.131 108.151 382.31 108.31 382.489 108.47C382.679 108.619 382.908 108.778 383.147 108.908C383.007 109.326 382.987 109.765 383.147 110.173L384.602 114.268C383.107 113.86 381.085 114.268 379.49 114.657C379.062 114.786 378.594 114.906 378.205 114.985C378.086 115.005 377.857 115.065 377.737 115.125L372.835 117.008C372.636 117.088 372.477 117.187 372.327 117.297L371.331 117.147C371.39 117.126 371.449 117.105 371.508 117.084L371.513 117.082C371.727 117.005 371.933 116.931 372.128 116.868ZM389.294 184.866C389.533 185.563 389.882 186.341 390.251 187.098L390.271 187.141C390.288 187.178 390.305 187.214 390.323 187.252C390.351 187.311 390.38 187.372 390.409 187.434C390.56 187.749 390.726 188.098 390.908 188.542C391.606 189.768 392.682 189.997 392.99 190.057L393.419 188.134L393.03 190.057C393.269 190.117 393.499 190.117 393.708 190.077C394.929 189.899 395.128 189.596 397.086 186.605L397.155 186.5C397.275 186.301 397.384 186.092 397.434 185.872C397.524 185.544 397.583 185.055 397.544 184.766C397.464 184.278 397.354 183.89 397.115 183.581C398.012 183.222 398.62 182.375 398.679 181.24V177.872C399.197 177.742 399.646 177.354 399.875 176.846L401.748 172.99C402.017 172.442 402.017 171.805 401.748 171.257L401.26 170.27H401.549C402.017 170.27 402.445 170.111 402.784 169.842L403.342 170.888C403.462 171.107 403.581 171.276 403.751 171.436C403.93 171.595 404.099 171.725 404.438 171.984L404.438 171.984C404.747 172.213 405.096 172.372 405.484 172.422L407.895 175.7C408.174 176.089 408.593 176.358 409.061 176.457C409.3 176.517 409.529 176.557 409.768 176.587C409.788 176.647 409.828 176.746 409.858 176.806C410.091 177.214 410.34 177.671 410.596 178.142C410.853 178.615 411.118 179.101 411.382 179.566L412.139 180.931C412.299 181.24 412.687 181.588 412.996 181.787L413.464 182.056C413.793 182.296 414.162 182.405 414.57 182.405H416.384C416.344 182.641 416.363 182.907 416.383 183.182L416.384 183.192L416.393 183.228L416.407 183.284C416.415 183.315 416.423 183.344 416.431 183.373C416.522 183.683 416.68 183.974 417.709 185.872C417.828 186.06 417.928 186.216 418.049 186.354C418.652 187.044 419.784 187.27 426.576 188.632H426.656H426.855C429.186 188.403 429.106 186.669 428.877 183.282L429.555 183.93C430.043 184.398 430.701 184.607 431.388 184.438L435.333 183.421C435.612 183.362 435.841 183.262 436.071 183.093L436.35 183.222C436.071 183.561 435.881 183.93 435.802 184.238C435.642 185.175 436.011 186.221 436.818 186.958C436.831 186.971 436.844 186.983 436.857 186.995C437.022 187.146 437.221 187.262 440.001 188.868L440.004 188.87L440.005 188.871L440.006 188.871C440.145 188.951 440.315 189.031 440.474 189.06L440.683 189.12C441.092 189.22 441.809 189.1 442.218 188.951C442.537 188.811 442.806 188.602 443.005 188.363L444.011 187.078C444.191 187.691 444.353 188.304 444.516 188.917L444.615 189.289L444.679 189.529L444.33 197.469L439.169 195.875C438.332 195.646 437.436 195.955 436.967 196.652L435.572 198.755L428.1 195.875L428.055 195.86C427.828 195.784 427.577 195.7 427.353 195.756C426.167 195.795 425.141 195.795 424.205 195.795L423.597 194.839C423.288 194.361 422.8 194.022 422.242 193.932C419.691 193.544 417.858 193.544 415.915 193.544C415.686 193.544 415.427 193.584 415.218 193.653C415.098 193.693 414.71 193.873 414.61 193.932L412.687 195.118C412.179 195.407 411.87 195.875 411.771 196.443L411.133 199.96L402.545 195.018C402.529 195.012 402.503 195.002 402.468 194.989C402.424 194.973 402.366 194.952 402.304 194.929C402.113 194.86 401.878 194.775 401.828 194.749L392.562 192.528L389.603 191.462C389.822 191.103 389.932 190.694 389.912 190.276C389.802 188.283 389.543 186.5 389.294 184.866ZM468.769 258.692L468.65 263.594C468.43 263.166 468.062 262.857 467.633 262.697C467.599 262.68 467.57 262.667 467.545 262.655C467.513 262.64 467.487 262.629 467.464 262.618L466.528 254.936L466.448 254.408C466.438 254.388 466.401 254.284 466.364 254.178L466.363 254.174C466.326 254.067 466.288 253.96 466.278 253.94L465.73 251.628C466.816 254.099 467.873 256.53 468.769 258.692ZM323.551 57.8194L323.553 57.8206C323.645 57.8729 323.737 57.9252 323.777 57.9451L326.368 59.1706C326.816 59.4296 327.693 59.5492 328.111 59.4695L329.287 61.2927L329.287 61.293C329.384 61.4151 329.466 61.5179 329.557 61.6119C330.045 62.1161 330.797 62.3643 335.583 63.9427L335.584 63.9428H335.803H335.942C336.132 63.9428 336.351 63.9428 336.48 63.903C337.088 63.8034 337.616 63.4347 337.885 62.8868C338.194 62.3089 338.313 61.9602 338.074 61.3724H339.868H340.147C340.884 61.2528 341.661 60.675 341.89 59.9576C342.169 59.1506 341.741 57.985 341.073 57.447L341.05 57.4302C340.818 57.2629 340.697 57.1753 338.642 56.1817C338.906 55.3597 338.536 54.7396 337.183 52.4714L337.108 52.3459C337.008 52.2263 336.869 52.0968 336.739 51.9773C336.112 51.4094 335.962 51.3297 333.292 50.5127L333.268 50.5072C333.097 50.4693 332.934 50.433 332.744 50.433C332.595 50.433 332.166 50.433 332.007 50.4529L329.377 51.0009C329.128 51.0607 328.898 51.1802 328.679 51.3097L327.723 51.8178C327.633 51.7581 327.533 51.7182 327.394 51.6784C327.145 51.6086 326.537 51.4891 326.248 51.5488C325.66 51.6086 325.252 51.8577 324.943 52.1267H322.044C321.287 52.1267 320.47 52.6149 320.141 53.2824C319.981 53.5514 319.902 53.8603 319.902 54.1691C319.902 55.4743 320.29 55.7333 323.329 57.696C323.369 57.7158 323.46 57.7675 323.551 57.8194ZM294.724 96.5558H294.894C294.935 96.5558 294.975 96.5558 295.014 96.5548C295.62 96.5389 296.219 96.2769 306.092 91.9629C307.278 91.1459 307.258 90.0799 307.078 89.3326C306.977 88.8958 306.833 88.4651 306.646 87.9067C306.594 87.7518 306.539 87.5872 306.481 87.4098C306.361 87.1408 306.222 86.8817 306.012 86.6725C305.973 86.6427 305.871 86.5407 305.769 86.4386L305.768 86.4384C305.666 86.3363 305.564 86.2341 305.524 86.2043L301.3 82.8965C300.911 82.6275 300.134 82.3486 299.138 82.3087L291.337 83.7135L289.583 82.6275C289.314 82.4881 288.657 82.3286 288.378 82.3286C287.828 82.3286 287.207 82.4549 284.171 83.0724L284.158 83.0751C283.785 83.1508 283.377 83.2338 282.928 83.3249C282.061 83.5939 281.434 84.2216 281.234 84.9987C281.045 85.6961 281.374 86.822 281.922 87.3301C282.639 87.9976 283.556 88.5755 284.412 89.0836L283.745 90.6179C283.576 91.126 283.596 91.9629 283.825 92.4312C283.903 92.5855 283.97 92.7187 284.053 92.8411C284.576 93.6115 285.728 93.9544 294.136 96.4561L294.136 96.4562C294.336 96.516 294.525 96.5558 294.724 96.5558Z" fill="currentColor"/>
</svg>
