<svg xmlns="http://www.w3.org/2000/svg" viewBox="0 0 351.6 54.2"><path fill="currentColor" d="M0 39.9l5-6.1c2.6 3.6 7.5 6 12.7 6 4.1 0 5.7-2.4 5.7-4.3C23.4 30 5 31.1 5 19.8c0-6.3 5.5-12.5 14.8-12.5 6 0 11.7 2.3 15 6.2l-5 5.9c-2.8-3.3-7.4-4.9-11.3-4.9-2.9 0-5 1.7-5 3.8 0 5 18.4 4.4 18.4 15.5 0 7-5.5 13.2-14.9 13.2-7.3.1-13.8-2.9-17-7.1zM35.5 34.4c0-8.7 6.6-16.6 15.8-16.6 8.7 0 13.6 5.4 13.6 12.7 0 8.7-6.6 16.6-15.8 16.6-8.8 0-13.6-5.4-13.6-12.7zm21.9-3.6c0-4-2.4-6.5-6.3-6.5-4.8 0-8.1 4.7-8.1 9.7 0 4 2.4 6.5 6.4 6.5 4.7 0 8-4.6 8-9.7zM67 46.4l8.3-38.5h7.2l-8.3 38.5H67zM82.4 34.4c0-8.7 6.6-16.6 15.8-16.6 8.7 0 13.6 5.4 13.6 12.7 0 8.7-6.6 16.6-15.8 16.6-8.8 0-13.6-5.4-13.6-12.7zm21.8-3.6c0-4-2.4-6.5-6.3-6.5-4.8 0-8.1 4.7-8.1 9.7 0 4 2.4 6.5 6.4 6.5 4.8 0 8-4.6 8-9.7z"/><path fill="currentColor" d="M113.3 39.9l5-6.1c2.6 3.6 7.5 6 12.7 6 4.1 0 5.7-2.4 5.7-4.3 0-5.4-18.4-4.4-18.4-15.6 0-6.3 5.5-12.5 14.8-12.5 6 0 11.7 2.3 15 6.2l-5 5.9c-2.8-3.3-7.4-4.9-11.3-4.9-2.9 0-5 1.7-5 3.8 0 5 18.4 4.4 18.4 15.5 0 7-5.5 13.2-14.9 13.2-7.3 0-13.8-3-17-7.2zM150.6 41c0-.3.1-1.2.2-1.9l3.1-14.2h-4.5l1.4-6.4h4.5l1.6-7.6h7.2l-1.6 7.6h5.5l-1.4 6.4h-5.5l-2.7 12.2c-.1.3-.1.6-.1 1 0 1.5.8 2.4 2.7 2.4.7 0 1.6-.3 2-.6l.2 5.9c-1 .8-2.7 1.2-4.5 1.2-4.8.1-8.1-1.8-8.1-6zM167.9 34.4c0-8.7 6.6-16.6 15.8-16.6 8.7 0 13.6 5.4 13.6 12.7 0 8.7-6.6 16.6-15.8 16.6-8.8 0-13.6-5.4-13.6-12.7zm21.9-3.6c0-4-2.4-6.5-6.3-6.5-4.8 0-8.1 4.7-8.1 9.7 0 4 2.4 6.5 6.4 6.5 4.7 0 8-4.6 8-9.7zM200.5 34.4c0-9.2 7-16.6 15.9-16.6 5.6 0 9.2 2.3 11.1 5.5l-5.4 4.2c-1.1-2-3.2-3.2-5.7-3.2-5.1 0-8.6 4.4-8.6 9.6 0 4.2 3.1 6.6 6.8 6.6 2.3 0 4.4-1.2 5.7-2.8l3.9 4.8c-2 2.3-5.5 4.4-10.3 4.4-8.1.2-13.4-4.9-13.4-12.5zM245.6 46.4l-5-10.9-4.2 3.8-1.5 7.2h-7.2L236 7.9h7.2l-4.9 22.6 12.7-12h9.1l-13.6 12.6 7.9 15.2h-8.8zM257 42l4-5.1c1.6 2 5.6 4.4 9.6 4.4 2.4 0 4-1.3 4-2.9 0-3.8-13.9-2.8-13.9-11.2 0-4.8 4-9.4 11.3-9.4 4.6 0 9 1.8 11.6 4.5l-3.7 4.9c-1.3-1.7-4.7-3.6-8-3.6-2.5 0-4 1.2-4 2.6 0 3.4 13.9 2.7 13.9 11.1 0 5.3-4.4 9.8-11.8 9.8-5.1 0-9.9-1.8-13-5.1z"/><g><g fill="currentColor"><path d="M331.7 6.1l.3.2h.2l.1.2c.1.1.1.1.7.3h.1c.1 0 .1 0 .1-.1v-.2h.2c.1 0 .2-.1.2-.1 0-.1 0-.2-.1-.3l-.3-.1c0-.1 0-.2-.2-.4-.1-.1-.1-.1-.4-.2h-.1-.1l-.3.1h-.1l-.1.1h-.1c-.1 0-.1 0-.1.1h-.3c-.1 0-.2.1-.2.1v.1c.1 0 .1 0 .5.2zM349.4 24.9l-.3-1.1h.1c.1 0 .1-.1.1-.2-.8-5.6-3.5-10.7-7.6-14.6-1.2-1.1-2.5-2.1-3.9-3l-.1-.1c-.2-.1-.3-.2-.5-.3h-.1s-.1 0-.1-.1c-.1 0-.2-.1-.2-.1h-.1s-.1 0-.1-.1h-.1-.1l-.1-.1h-.2c-.1 0-.2 0-.2.1s0 .2.1.2.1.1.2.1h.1l.6.3.3.1h.2l.4.2.1.1c.2.1.4.3.6.5 0 0 0 .1-.1.1 0 .1 0 .2.1.2l.1.1h-.1l-.4-.3s-.1-.1-.3-.4v-.1c0-.1-.1-.1-.1-.2-.1 0-.1 0-.5-.2-.1 0-.2 0-.2.1-.1 0-.1 0-.2.1s-.1.2 0 .3c.1.2.3.3.4.4l.2.2.1.1c0 .1.1.2.2.3l.1.1c.1.1.1.1.9.5h.4s-.1.1-.1.2v.1l-.9-.4h-.3v.1c-.1 0-.2-.1-.3-.1-.1 0-.2-.1-.3-.1h-.1l-.5-.1h-.1l-.3-.1-.2-.1h-.1l-.4-.1h-.4-.1l-.1.1v.1h-.2l-.1.1v.1l-.1.1s0 .1-.1.1l-.1.1V8.5l-.1.8v.1h-.1l-.5.6c-.1.1-.1.2 0 .2l.6.9.1.2s0 .1.1.1c.1.1.4.2.5.2h.1v.4c0 .1 0 .1.1.2l.2.2v.1l-.3.1h-.1l-.2.2s-.1 0-.1.1l-.1.1s0 .1-.1.1v.1l-.1.1v-.2-.1c0-.1 0-.1-1.2-1.2v-.3-.2-.1c-.1-.1-.1-.1-.4-.3v-.1c-.1-.1-.1-.2-.3-.2h-.4c-.2 0-.2 0-.4.9v.2s0 .1.1.1h-.1-.1s-.1 0-.1.1h-.1-.1c-.1 0-.2 0-.3.2 0 .1-.1.1 0 .2l.1.2c0 .1 0 .1.1.2v.1l-.1.4c0 .1 0 .2.1.2 0 0 .2.1.3.1l.6-.1h.1l.5-.2h.1v.1l-.1.1-.1.1v.1l-.1.3v.2c.1.1.1.1.3.1h.2l-.1.2v.2c0 .1 0 .2.1.3l.1.1.1.1h.3l.4.3V15.7l.1.2c-.2 0-.2 0-1-.1-.1 0-.1 0-.4-.1h-.2c-.1 0-.1.1-.1.1v.1h-.1s-.1 0-.1.1v.1s-.1.1-.1.2c0 .3.1.6.1.9l-.2.8v.2s0 .1.1.1l.1.1.2.5c.1.1.2.2.4.2l.4-.1.2.2-1.3 1.1-.1.1v.1l-.2.9-.9.6-.4.2c-.1 0-.1.1-.1.1-.2.4-.5.8-.7 1.3-.1.2-.2.3-.3.5l-.5 1.1v.6l.1.2.1 1-.6 1.2v.2l.3.3v.7l.2.3.3.4.7.9.1.1.4.3.3.4.1.1h.2l.9.5.3.3h.2c.2 0 .3-.1.4-.1l.7-.1H334.6l.9-.1H335.8l.4-.2h.4l.3-.1.2.6c0 .1.1.2.2.1l.7-.1.3.4v.1l-.6 1.2v.2l.5 1.2.1.3v.8l-.1.4-.3 1.4-.4.4-.5.9-.1.1-.1.1s0 .1-.1.1c-.1.3-.2.5-.3.8v.2l.1.5c-.2.9-.5 1.8-.8 2.5V44.6l-.2.5c-.1.2-.1.2-.3.5l-.2.2c-.1.1-.2.3-.3.5l-.1.1v.2c0 .1.1.1.1.1h.4c.1 0 .2-.1.3-.1h.1c.3-.1.8-.2 1.2-.2l.7-.3 1.1-.8c.1-.1.4-.3.5-.4l.6-.6.2-.2.2-.1h.2c.1 0 .2-.1.3-.2l.7-.7V43l.4-.7.1-.1h.1c.1-.1.2-.2.3-.2l.1-.1c.3-.2.6-.5.8-.6h.1c0 .1-.1.1-.1.2 0 0 0 .1-.1.1l-.3.5-.6.5-.7 1c-.1.1-.1.2-.1.3 0 .1 0 .2.1.2h.2l.4-.2s.3-.2.7-.7c0 0 .1 0 .1.1h.1c.1 0 .2-.1.2-.1.1-.1.2-.2.2-.3l.1-.1s.1-.1 0-.3l-.1-.1c.1-.2.3-.3.5-.5v.1c0 .1 0 .1.1.2.1 0 .1.1.2 0 .1 0 .1 0 .4-.4.1-.1.1-.1.1-.3v-.1c0-.1 0-.1-.1-.1-.1-.1-.2-.1-.2 0l-.1.1c0-.1.1-.1.1-.2.1 0 .1-.1.2-.1l.7-1.2c0-.1 0-.1.1-.3 0-.1 0-.2-.1-.2-.1-.1-.2-.1-.3 0l-.2.3c0-.1 0-.2-.1-.3h-.4-.1s0-.1.1-.1c0-.1.1-.1.1-.2l.1-.1v-.2l.3-.9.1-.3.3-.5.1-.1v-.1c.1-.2.1-.4.2-.5l.3-.4.2-.2s.1 0 .1-.1l.8-1.2.2-.1.1-.1.5-1c.2-.5.5-1.1.5-1.2l.1-.4c.1-.5.2-1 .3-1.4V30c0-.1-.1-.1-.1-.2h-.2l-.3.2c-.1.1-.2.2-.3.2V30h.1l.6-.5s0-.1.1-.1l.4-.8v-.1-.2l.1-.1.2-.6v-.4c.3-1.1.4-1.7.4-2.3 0 .1 0 .1 0 0zm-2.3 2.5v.5l-.1-.1-.1-.8v-.1l-.1-.2c0 .2.2.5.3.7zm-8.5-7.8c0 .1.1.2.1.2s0 .1.1.2l.2.2V20v.2h.1c.1 0 .2-.1.4-.4v-.1-.1-.1c.1 0 .2-.1.2-.2v-.4c.1 0 .1-.1.1-.1l.2-.4v-.2l-.1-.1h.1l.1.1v.1l.1.1h.1l.3.3.1.1h.1c0 .1.1.2.2.3l.1.1.1.1H341.5v.1l.1.3c.1.1.1.1.9.3.2 0 .2-.2.2-.6l.1.1c.1 0 .1.1.2.1l.4-.1h.1l-.1.1c0 .1 0 .2.1.3l.3.2h.2s.1 0 .1-.1l.1-.1c0 .1 0 .2.1.3v.8l-.5-.2c-.1 0-.2 0-.2.1l-.1.2-.8-.3h-.4l-.1-.1c0-.1-.1-.1-.1-.1h-.7-.1-.1l-.2.1c-.1 0-.1.1-.1.1l-.1.4-.9-.5h-.1l-1-.2-.3-.1v-.1c.2-.4.2-.6.1-.7zm-1.8-7.2c.2-.1.2-.1.2-.2v-.5l.1-.2.1-.5v-.1l.4.2h.1c0 .1.1.2.1.3v.1h.1v.1l.2.4h-.5-.1l-.7.4c.1 0 .1 0 0 0zm5.3 4s0-.1.1-.1v-.4l.1.1c.4.4.4.4.5.4h.1s.1 0 .1-.1.1-.1.1-.2l.1.1.7.5.3.2h-.3c-.3-.2-.3-.2-.4-.2h-.1c-.1 0-.3.1-.5.2-.1.1-.3.1-.4.1h-.1l-.3-.3V16.4zm-.1 2.2s0-.1 0 0l-.1-.1c.1 0 .1 0 .1.1.1 0 .1.1.1.1l.2.5h-.5l.2-.2s.1-.1.1-.2-.1-.1-.1-.2zm-8.3.8l.5-.1h.2l.4-.3.1-.1.2-.2c.1-.1.1-.1.1-.2l-.2-.5v-.1l.2-.1H335.5l.2-.1c.1 0 .1-.1.1-.2V17l.6.1h.1l.3-.2h.1l-.1.1V17.3c0 .1 0 .2.1.2v.1s0 .1.1.1V18c0 .1.1.3.1.4 0 .2.2.2.2.2h.2l.3-.1c.1 0 .2-.1.2-.2l-.1-.5c0-.1-.1-.1-.2-.2 0-.1 0-.1.1-.2l.4.4s.1 0 .1.1l.8.4.1.1.1.2-.5-.1s-.1 0-.2.1c-.1 0-.1.1-.1.2V19.1c.1.2.4.3.6.5h.1c-.1 0-.2.1-.2.3 0-.1 0-.2-.1-.3 0 0 0-.1-.1-.1l-.2-.1-.3-.2h-.2-.1l-.3.1-1.9.1h-.1l-1.3.5-.7-.5zM344.1 40l-.4.3.5-.7h.4c-.2.1-.3.2-.5.4z"/><path d="M337.3 34.4c0-.2 0-.3-.1-.5-.1-.1-.3-.2-.5-.2h-.1c-.3 0-.5.2-.6.5-.1.2 0 .4.2.6.1.1.2.1.3.1.5 0 .7-.2.8-.5zM328 8.2c.1 0 .2 0 .2-.1l.1-.2c0-.1.1-.2.1-.3v-.1c0-.1 0-.1-.1-.1l.1-.1.1-.7v-.1-.2c-.1-.1-.1-.3-.2-.4 0 0 .1 0 .1-.1H328.7l.2-.2s.1-.1.1-.2v-.1c-.1-.2-.3-.2-.5-.3h-.2H328s0-.1-.1-.1l-.1-.1c0-.1-.1-.2-.2-.3-.2-.1-.4-.2-.6-.2h-1.9c-.1 0-.1 0-.2.1-.1 0-.2-.1-.2 0-.2.1-.5.2-.7.4-.1 0-.1.1-.1.1 0-.1-.1-.1-.2-.1-.2 0-.2 0-.3-.1v-.1c0-.1-.1-.3-.4-.3H322.7c0-.1 0-.3-.3-.4h-.1s-.2 0-.4.1c-.1.1-.1.2-.1.2s-.1 0-.1.1c0 0-.1 0-.1.1-.1 0-.1.1-.2.2s-.1.1-.2.1h-.2c-.2.1-.2.2-.3.3-.1.1-.2.2-.2.3 0 0-.1 0-.1.1v-.3c0-.1-.2-.2-.2-.2-.1 0-.2.1-.2.2l-.3.2s-.1 0-.1.1l-.6.3c-.1.1-.1.2 0 .3 0-.1-.1-.1-.3-.1v-.1l.2-.3v-.2c0-.1-.1-.1-.2-.1s-.1 0-.4.2l-.1.1-.2.2h-.1v-.1c0-.1-.1-.2-.2-.3h-.2s-.1 0-.2.1c-.1-.1-.3 0-.3.1l-.1.1c0-.1-.1-.1-.2-.1h-.7-.1l-.5.2c-.1 0-.1.1-.3.3h-.5-.1-.1l-.8.3h-.1l-.5.3c-.1.1-.1.1-.1.2s0 .2.1.2l-.1.1.2-.1c0-.1-.1-.1-.1-.1v-.1c-.1-.1-.1-.1-.2-.1h-.2-.1l-.5.1v-.1c0-.1 0-.2.1-.3 0-.1 0-.2-.1-.3h-.1c-.2 0-.4 0-.6.1h-.1l-.7.3c-1.1.8-2.2 1.6-3.2 2.6 0 0 0 .1-.1.1l-.5.6s-.1.1 0 .2l-.2.2h-.1c-.1 0-.1 0-.6.5l-.1.1-.2.2-.1.1-.2.2v.1h-.1l-.3.3c0 .1-.1.2 0 .2l-.1.1h-.1c-.1 0-.1 0-.4.5v.2s-.1.1-.1.3l-.1.2c-.1 0-.1 0-.1.1l-.2.2c-1.8 2.7-3 5.7-3.7 8.9l-.1.8v1.1l-.1 1.1v.1l.1.4c.1.4.2.9.4 1.2 0 0 0 .1.1.1l.5.5c.1.1.2.1.2 0l.3-.1.2.5v.2l.1.2.2.3.1.1.4.2.5 1.5v.1l.1.1c.1.1.2.1.2.1h.1l.2.2c0 .1 0 .1.1.1 0 0 .1 0 .1.1h.1l.3.4c.1.1.2.1.3.1l.3-.1.1-.1.1.2c.1.6.2 1.2.3 1.7l-.1.4-.1.4V35.2c.1.2.1.4.2.6v.1s0 .1.1.1l.1.1v.2l.4.9.8.7.4.6v.1c.6.8 1.5 1.9 1.7 2l1.1.6c.1.1.2.1.6.3l.1.1c.5.7 1.1 1.7 1.7 2.4 1.2 1.5 1.5 1.9 3.1 3.5l.4.3.2.2.1.1c.1 0 .2.1.3.1 0 .1 0 .1.4.3.1 0 .1.1.2.1l.1.2.1.1.3.1.1.1.1.1c.1.1.3.1.4.2h.1c0 .1.1.1.1.2 0 0 .1 0 .1.1 0 0 .1 0 .1.1l.2.1h.4l.1.1.4.2h.2l.1.1.4.2h.5c.1 0 .2 0 .2-.1.1 0 .1-.1.2-.1v-.2h.2l.1-.1c0-.1 0-.1-.1-.2l-.2-.2-.3-.2h-.1-.1-.1c-.1.1-.1.2-.1.3 0 0 0 .1.1.1l-.3-.1h-.1-.1l-.1-.1h-.1l-.3-.1-.3-.4c-.1 0-.1-.1-.2-.2 0 0-.1 0-.1-.1l-.3-.1s0-.1-.1-.1c-.2-.2-.4-.5-.6-.7l-.1-.1h-.1c.1-.1.1-.2 0-.2v-.1l.3-.2s.1-.1.1-.2V47l-.1-.4s0-.1-.1-.1l-.1-.1.1-.1v-.1l.1-.3v-.1-.1l.1-.4s0-.1.1-.1V44.9c.1-.1.1-.1 0-.2l-.4-1.1c.5-.3 1.1-.6 1.5-.8.1 0 .1-.1.1-.2v-.3c.1-.5.2-1 .2-1.5v-.1l-.3-1.2.1-.2.2-.1h.1v-.1l.4-.7.4-.7v-.1-.1l-.2-1.1c0-.1-.1-.1-.1-.1l-2-1h-.1l-1.6-.2-.6-.2-.6-.5h-.1l-.1-.1v-.2s0-.1-.1-.1c0-.1-.1-.1-.2-.1l-.5-.4-.6-.8v-.1l-.1-.1s-.1 0-.1-.1l-1-.5-.3-.3s-.1-.1-.2 0l-.6.1-.8-.7h.2c.1 0 .1-.1.1-.2v-.4l.2-.2s.1-.1.1-.2v-.1c0-.1-.1-.2-.2-.2h-.7s0-.1-.1-.3c.1-.1.1-.1.1-.2l-.1-.4c0-.1 0-.1-.1-.3 0 0 .1 0 .1-.1.1-.1 0-.2-.1-.5v-.2c.1 0 .2-.1.2-.3l-.1-.4c0-.1-.1-.1-.2-.2 0-.1 0-.2-.1-.2-.1-.1-.1-.1-.2-.1h-.1c0-.1-.1-.2-.2-.2-.2 0-.4-.1-.6-.1h-.3-.1c-.1 0-.1.1-.2.1-.1-.1-.2-.1-.2-.2l-.2-.1s-.1-.1-.2-.1-.2.1-.2.1l-.6-.3-.3-.1h-.1H306.1h-.1-.1.2c.2 0 .3-.1.3-.2s0-.1-.2-.5c-.1-.1-.2-.2-.3-.2-.1 0-.1 0-.2.1 0 .1-.1.2-.1.3-.2-.2-.5-.3-.7-.5-.3-.2-.7-.5-1-.7h-.2-.1l-.6.1h-.1c-.1 0-.1 0-.4.7l-.1-.1h-.1l-.9.1c-.1 0-.2.1-.2.2l-.2.8-.3.1-.3-.7.3-1.4.2-.7.2-.3c.2-.4.5-.8.7-1.1h.3l.5.4c.1.1.2.1.2 0 .2-.1.3-.3.3-.5l.6.2-.1 1.7c0 .1 0 .2.1.2.2.1.3.1.4.1.1 0 .1 0 .1-.1l.1-.1v.1l.1.3c0 .1.1.2.3.2h.3c.1 0 .2-.1.2-.2s0-.1-.1-.6c0-.1-.1-.2-.3-.2h-.2l.2-.5c.1-.4.1-.7.2-1.1l.5-.9h.1l.6-.4c.4-.2.7-.5 1-.7l.1-.1c.1-.1.1-.1.1-.2.1-.2.1-.5.2-.7.1.1.2.1.3 0l.9-.9v-.1l.1-.2 1-.1c.1 0 .1 0 .1-.1l.3-.3c.1-.1.1-.1 0-.2v-.1l.2-.3h.4l.7-.3v.4l.1.1c.1.1.2.1.2.1.3-.1.8-.3 1.1-.4l.4-.2s.1 0 .1-.1l.1-.1v-.1h.2c.1 0 .1 0 .4-.2l.1-.1c.1-.1 0-.2-.1-.3l.1-.3c0-.1 0-.2-.1-.2-.1-.1-.1-.1-.2-.1s-.1 0-.7.7l-.2-.2c0-.1 0-.2.1-.2s.1 0 .1-.1l.3-.3s.1-.1.1-.2V14s0-.1-.1-.1h1s-.1.1-.1.2v.2l-.1.2v.2c.1.1.1.1.7.2v.1s.1.1.2.1h.2c.1 0 .1 0 .1-.1 0 0 .1.1.2.1h.2c.1 0 .1 0 .5-.3 0 0 .1-.1.1-.2v-.2c0-.1 0-.2-.1-.2l.1-.1v-.2c0-.1-.1-.1-.2-.2l.3-.3c.1-.1.1-.2.1-.3 0-.1-.1-.1-.1-.1l.2-.3v-.2c0-.1-.1-.1-.2-.1l-.4-.1v-.1c.1-.2.1-.3.1-.4v-.1c0-.1 0-.2-.1-.2l-.1-.1v-.2c.1-.6.2-.9.2-1 0-.1 0-.2-.1-.2.1 0 .1-.1.3-.4H316.9c.1 0 .1 0 .7-.5h.1c.1 0 .1 0 1-.5 0 0 .1-.1.1-.2s0-.1-.4-.7l.2-.3c.1-.1.1-.1-.4-.8l-.1-.1c.1 0 .1-.1.3-.3h.1c.2 0 .4-.2.6-.3.1 0 .1-.1.1-.1h.2l.3-.1.1-.1V6l.1.1.1.1h.8v.1l-.2.4v.1s0 .1.1.1v.2s0 .1.1.1v.2h-.3c-.1 0-.1 0-.6.4l-.1.1 1.5 1.1v.1s0 .1.1.1h-.1-.1l-.1.1v.1l.2.9s0 .1.1.1l.1.1H321.8l.1.2.1.1c.1.1.2.1.3.1l.4-.1h.1l.3-.3c.3-.3.6-.7.9-.9l.7-.2h.1l.1-.1h.2c.1 0 .1 0 .5-.3l.6-.4.3.1h.2c.4-.1.9-.3 1.3-.5 0 .1 0 0 0 0zm-11.9 1.1s.1.1 0 0l-.2-.1.1-.4v-.1l.7-.1s-.1 0-.1.1l-.3.3c-.2.1-.2.2-.2.3zm-2.2.2c.1 0 .1 0 0 0l.1-.1.1-.1h.3v.1c0 .1 0 .2.1.2h.4l.1-.1c-.1.1-.3.3-.4.5-.1.1-.2.2-.2.3l-.4.2s-.1 0-.1.1l-.5.8-1 .3c-.1 0-.1 0-.1.1 0 0 0 .1-.1.1l-.3-.4-.2-.5c0-.1-.1-.1-.1-.1l.1-.1v-.1l.7-.5c.2-.1.5-.2.8-.3l.7-.4zm2.9-.9l.6-.6c.1 0 .2.1.3.1l-.3.2-.1.2-.5.1zm.1 1.8c.1-.1.1-.2 0-.3l-.5-.5-.2-.1c.1.1.2 0 .6 0h.1v.1c-.1.2-.1.3.6.7l-.7.4h-.1l.2-.3zm-13.2 14.7s.1 0 0 0v.4c0 .1.1.1.2.2H304.2c0 .2.1.5.2.6.1.1.2.1.3.1.3 0 .5-.3.6-.6v-.3l.1.1V25.9c0 .1.1.2.2.2h.2l.6-.1c-.1.1-.1.1-.1.2l-.1-.1c-.1 0-.3-.1-.5-.1h-.2-.1c-.1 0-.1 0-.3.3 0 .1-.1.2-.1.2 0 .1.1.1.1.2.1.1.2.2.4.2l.1.1H305.9l.4-.1h.1c.1-.1.1-.1.1-.2v-.1c.1.1.3.1.9.2h1.2c0 .1.1.1.2.1h.6c.1 0 .1 0 .2-.1l.1.1c.1 0 .1.1.2.1h.2v.1c0 .1.1.2.2.2V28c0 .2.1.2.2.2V28.8c0 .1 0 .2.1.2v.2s-.1.1-.1.2v.4c0 .1.1.2.3.3v.1l-.4-.4h-.1l-.8-.2h-.2-.1l-.1.1-.8-.2-.5-.6-.1-.1H307.4l-.1.1-.1-.1c-.1 0-.1-.1-.2-.1h-.2l-1 .5-.1.1v.1l-.3.7-.3-.2h-.2l-.6.1-.2-.4.1-1.8v-.1-.1c-.1-.2-.3-.4-.4-.5l-.1-.1-.1-.1h-.1l-.5-.1v-.4l.7-1.3z"/><path d="M328.6 10.2c.1 0 .1 0 1.2-.5.1-.1.1-.2.1-.3 0-.1 0-.1-.1-.2v-.1h-.1l-.4-.3s-.1-.1-.2-.1l-.8.1-.2-.1h-.1c-.1 0-.1 0-.6.1-.1 0-.2.1-.2.2s0 .2.1.2c.1.1.2.1.3.2l-.1.2v.2c0 .1 0 .1 1.1.4z"/></g><path fill="currentColor" d="M324.5 54.2c-14.9 0-27.1-12.2-27.1-27.1 0-14.9 12.2-27.1 27.1-27.1 14.9 0 27.1 12.2 27.1 27.1 0 15-12.1 27.1-27.1 27.1zm0-50.8c-13.1 0-23.7 10.6-23.7 23.7s10.6 23.7 23.7 23.7 23.7-10.6 23.7-23.7-10.6-23.7-23.7-23.7z"/></g></svg>
