<svg viewBox="0 0 130 45" version="1.1" xmlns="http://www.w3.org/2000/svg" xmlns:xlink="http://www.w3.org/1999/xlink">
<g stroke="none" stroke-width="1" fill="none" fill-rule="evenodd"><g transform="translate(-91.000000, -99.000000)"><g transform="translate(91.000000, 99.000000)">
<path d="M104.074508,42.441772 L105.540016,38.2814786 L106.796291,38.2814786 L104.495614,44.5132619 L103.661619,44.5132619 L102.305862,40.5173025 L100.876156,44.5132619 L100.041867,44.5132619 L97.8799932,38.2814786 L99.1350948,38.2814786 L100.509339,42.441772 L102.003605,38.2266027 L102.653898,38.2266027 L104.074508,42.441772 Z M108.894808,44.3939729 L108.894808,38.2816253 L110.086524,38.2816253 L110.086524,44.3939729 L108.894808,44.3939729 Z M116.006953,42.8727968 C116.418668,42.5059797 116.66605,41.9196591 116.66605,41.3330451 C116.66605,40.7467246 116.418668,40.1785982 116.006953,39.811781 C115.612257,39.4546479 115.144786,39.3173115 114.375643,39.3173115 L114.055485,39.3173115 L114.055485,43.3584628 L114.375643,43.3584628 C115.144786,43.3584628 115.631038,43.2117359 116.006953,42.8727968 Z M116.803973,38.9871761 C117.491242,39.5464989 117.89474,40.4168826 117.89474,41.3330451 C117.89474,42.2406975 117.481558,43.1110813 116.785192,43.6883047 C116.198871,44.1833612 115.53009,44.3940609 114.604831,44.3940609 L112.86377,44.3940609 L112.86377,38.2814199 L114.614221,38.2814199 C115.511896,38.2814199 116.226456,38.5106072 116.803973,38.9871761 Z M123.750521,39.3172528 L121.560476,39.3172528 L121.560476,40.673009 L123.668354,40.673009 L123.668354,41.7089007 L121.560476,41.7089007 L121.560476,43.3584041 L123.750521,43.3584041 L123.750521,44.3940023 L120.369348,44.3940023 L120.369348,38.2816546 L123.750521,38.2816546 L123.750521,39.3172528 Z M3.21827765,39.3172528 L3.21827765,38.2816546 L7.14909029,38.2816546 L7.14909029,39.3172528 L5.7748465,39.3172528 L5.7748465,44.3940023 L4.58313093,44.3940023 L4.58313093,39.3172528 L3.21827765,39.3172528 Z M13.0694605,40.6458059 L13.0694605,38.2814492 L14.2611761,38.2814492 L14.2611761,44.3937968 L13.0694605,44.3937968 L13.0694605,41.6811106 L10.485307,41.6811106 L10.485307,44.3937968 L9.29359142,44.3937968 L9.29359142,38.2814492 L10.485307,38.2814492 L10.485307,40.6458059 L13.0694605,40.6458059 Z M17.0385395,44.3939436 L17.0385395,38.2815959 L20.4197133,38.2815959 L20.4197133,39.3171941 L18.2299616,39.3171941 L18.2299616,40.6729503 L20.3375463,40.6729503 L20.3375463,41.7091354 L18.2299616,41.7091354 L18.2299616,43.3586388 L20.4197133,43.3586388 L20.4197133,44.3939436 L17.0385395,44.3939436 Z M31.5550497,38.2815666 L28.9708962,41.1040045 L31.6915056,44.3939142 L30.1253431,44.3939142 L27.9529052,41.6448397 L27.8070587,41.7912731 L27.8070587,44.3939142 L26.6156366,44.3939142 L26.6156366,38.2815666 L27.8070587,38.2815666 L27.8070587,40.8657201 L30.0510993,38.2815666 L31.5550497,38.2815666 Z M38.3732709,42.396228 L38.3732709,38.2817133 L39.564693,38.2817133 L39.564693,44.5132032 L38.740088,44.5132032 L35.0196817,40.2607652 L35.0196817,44.3940609 L33.8282596,44.3940609 L33.8282596,38.144377 L34.6528646,38.144377 L38.3732709,42.396228 Z M45.3012438,43.4407765 C46.4198894,43.4407765 47.3360519,42.4967359 47.3360519,41.3328984 C47.3360519,40.1693544 46.4292799,39.2347043 45.2933205,39.2347043 C44.183772,39.2347043 43.2585124,40.1787449 43.2585124,41.3152912 C43.2585124,42.4967359 44.1652844,43.4407765 45.3012438,43.4407765 Z M45.3106343,38.1442302 C47.1347427,38.1442302 48.5647427,39.5463521 48.5647427,41.3422889 C48.5647427,43.1476163 47.1256456,44.531544 45.2654424,44.531544 C43.4319436,44.531544 42.0298217,43.1294221 42.0298217,41.2965102 C42.0298217,39.5557427 43.4967968,38.1442302 45.3106343,38.1442302 Z M50.3969797,39.3172528 L50.3969797,38.2816546 L54.3289661,38.2816546 L54.3289661,39.3172528 L52.9532551,39.3172528 L52.9532551,44.3940023 L51.7630068,44.3940023 L51.7630068,39.3172528 L50.3969797,39.3172528 Z M65.6378217,42.441772 L67.1033296,38.2814786 L68.359605,38.2814786 L66.0589278,44.5132619 L65.2246388,44.5132619 L63.8688826,40.5173025 L62.4391761,44.5132619 L61.6051806,44.5132619 L59.4430135,38.2814786 L60.6981151,38.2814786 L62.0726524,42.441772 L63.5669187,38.2266027 L64.2172122,38.2266027 L65.6378217,42.441772 Z M73.4183363,43.4407765 C74.5369819,43.4407765 75.4531445,42.4967359 75.4531445,41.3328984 C75.4531445,40.1693544 74.5463725,39.2347043 73.4104131,39.2347043 C72.3005711,39.2347043 71.3753115,40.1787449 71.3753115,41.3152912 C71.3753115,42.4967359 72.282377,43.4407765 73.4183363,43.4407765 Z M73.4274334,38.1442302 C75.2518352,38.1442302 76.6815418,39.5463521 76.6815418,41.3422889 C76.6815418,43.1476163 75.2427381,44.531544 73.382535,44.531544 C71.5490361,44.531544 70.1469142,43.1294221 70.1469142,41.2965102 C70.1469142,39.5557427 71.6138894,38.1442302 73.4274334,38.1442302 Z M80.6956659,41.0948781 C81.4477878,41.0948781 81.8595034,40.7650361 81.8595034,40.1599345 C81.8595034,39.5557133 81.4662754,39.243772 80.7141535,39.243772 L80.3473363,39.243772 L80.3473363,41.0948781 L80.6956659,41.0948781 Z M82.537088,41.4335237 C82.2990971,41.6357133 82.0793002,41.745465 81.6951693,41.8191219 L83.6190519,44.3938849 L82.1532506,44.3938849 L80.5037472,41.9379707 L80.3473363,41.9379707 L80.3473363,44.3938849 L79.1559142,44.3938849 L79.1559142,38.2815372 L80.9245598,38.2815372 C81.6027314,38.2815372 82.1441535,38.4282641 82.4830926,38.7123273 C82.8590068,39.0239752 83.0879007,39.5466163 83.0879007,40.0865711 C83.0879007,40.6365034 82.8774944,41.1403634 82.537088,41.4335237 Z M86.992009,38.2815666 L86.992009,43.3586095 L88.8706998,43.3586095 L88.8706998,44.3939142 L85.8005869,44.3939142 L85.8005869,38.2815666 L86.992009,38.2815666 Z M94.2128781,42.8727968 C94.6257675,42.5059797 94.8734424,41.9196591 94.8734424,41.3330451 C94.8734424,40.7467246 94.6257675,40.1785982 94.2128781,39.811781 C93.8193567,39.4546479 93.3521783,39.3173115 92.5815688,39.3173115 L92.2614108,39.3173115 L92.2614108,43.3584628 L92.5815688,43.3584628 C93.3521783,43.3584628 93.8381377,43.2117359 94.2128781,42.8727968 Z M95.0110722,38.9871761 C95.6983409,39.5464989 96.1009594,40.4168826 96.1009594,41.3330451 C96.1009594,42.2406975 95.6889503,43.1110813 94.9925847,43.6883047 C94.4059707,44.1833612 93.7363093,44.3940609 92.8110497,44.3940609 L91.0696953,44.3940609 L91.0696953,38.2814199 L92.8201467,38.2814199 C93.718702,38.2814199 94.4338488,38.5106072 95.0110722,38.9871761 Z" fill="currentColor"></path>
<path d="M121.794065,32.4044515 L114.888512,25.4980181 C113.44384,24.0536388 113.44384,21.7048352 114.887632,20.260456 C115.610115,19.5385598 116.558264,19.1779052 117.50612,19.1779052 C118.454269,19.1779052 119.402711,19.5385598 120.125194,20.2610429 L121.793185,21.9290339 L123.46235,20.260456 C124.18454,19.5385598 125.132982,19.1779052 126.081131,19.1779052 C127.029573,19.1779052 127.978016,19.5385598 128.700499,20.260456 C130.143998,21.7048352 130.143998,24.0536388 128.700499,25.4980181 L121.794065,32.4044515 Z" fill="currentColor"></path>
<path d="M10.775298,4.40899549 L10.775298,10.9304176 L15.3335147,10.9304176 L15.3335147,16.8781377 L10.775298,16.8781377 L10.775298,23.7164898 C10.775298,25.4229233 11.6045982,26.1545034 13.1158849,26.1545034 C13.8621377,26.1545034 14.678526,25.9913431 15.3335147,25.7463093 L15.3335147,32.2369187 C14.4170587,32.5826072 12.8890451,32.8338036 11.3117314,32.8338036 C6.14371783,32.8338036 3.21827765,30.3966704 3.21827765,24.8383634 L3.21827765,16.8781377 L-2.93453725e-05,16.8781377 L-2.93453725e-05,10.9304176 L3.21827765,10.9304176 L3.21827765,4.40899549 L10.775298,4.40899549 Z M72.2038488,10.9271896 L80.636535,10.9271896 L69.3981377,32.4044808 L64.2861738,32.4044808 L58.9288826,20.6466704 L53.8084086,32.4044808 L48.6879345,32.4044808 L40.3652935,16.2228555 L46.1216817,10.9271896 L46.1281377,10.9271896 L51.2480248,22.2583183 L56.6528555,10.9271896 L61.3941874,10.9271896 L66.7990181,22.5905079 L72.2038488,10.9271896 Z M101.005275,32.4044515 L95.6479842,20.6466411 L90.5275102,32.4044515 L85.4070361,32.4044515 L78.5663363,19.1045418 L82.8451851,10.9271603 L82.8472393,10.9271603 L87.9671264,22.2582889 L93.3719571,10.9271603 L98.1132889,10.9271603 L103.51812,22.5904786 L108.922657,10.9271603 L117.361799,10.9271603 L106.125749,32.4044515 L101.005275,32.4044515 Z M32.4600609,20.8363883 L43.8859752,32.4043341 L33.2183454,32.4043341 L24.8742822,23.6811287 L24.8742822,32.4043341 L17.2887968,32.4043341 L17.2887968,3.01980663e-14 L24.8742822,3.01980663e-14 L24.8742822,18.6554402 L32.8389097,10.9270429 L43.2221828,10.9270429 L43.2312799,10.9270429 L39.4369233,14.4179684 L39.4351625,14.4141535 L32.4600609,20.8363883 Z" fill="currentColor"></path>
</g></g></g></svg>
